<svg width="149" height="149" viewBox="0 0 149 149" fill="none" xmlns="http://www.w3.org/2000/svg">
<g clip-path="url(#clip0_1897_326)">
<path d="M114.078 0H34.9219C15.6351 0 0 15.6351 0 34.9219V114.078C0 133.365 15.6351 149 34.9219 149H114.078C133.365 149 149 133.365 149 114.078V34.9219C149 15.6351 133.365 0 114.078 0Z" fill="white"/>
</g>
<path d="M127 34.3016L123.182 99.6859L86.9091 14L127 34.3016ZM101.835 118.844L74.5 136L47.1653 118.844L52.719 104.07H96.3678L101.835 118.844ZM74.5 46.5016L88.8182 84.8172H60.1818L74.5 46.5016ZM25.8182 99.6859L22 34.3016L62.0909 14L25.8182 99.6859Z" fill="url(#paint0_linear_1897_326)"/>
<path d="M127 34.3016L123.182 99.6859L86.9091 14L127 34.3016ZM101.835 118.844L74.5 136L47.1653 118.844L52.719 104.07H96.3678L101.835 118.844ZM74.5 46.5016L88.8182 84.8172H60.1818L74.5 46.5016ZM25.8182 99.6859L22 34.3016L62.0909 14L25.8182 99.6859Z" fill="url(#paint1_linear_1897_326)"/>
<defs>
<linearGradient id="paint0_linear_1897_326" x1="31.7225" y1="93.8052" x2="117.991" y2="56.4805" gradientUnits="userSpaceOnUse">
<stop stop-color="#E40035"/>
<stop offset="0.24" stop-color="#F60A48"/>
<stop offset="0.352" stop-color="#F20755"/>
<stop offset="0.494" stop-color="#DC087D"/>
<stop offset="0.745" stop-color="#9717E7"/>
<stop offset="1" stop-color="#6C00F5"/>
</linearGradient>
<linearGradient id="paint1_linear_1897_326" x1="43.8964" y1="26.323" x2="104.43" y2="89.1911" gradientUnits="userSpaceOnUse">
<stop stop-color="#FF31D9"/>
<stop offset="1" stop-color="#FF5BE1" stop-opacity="0"/>
</linearGradient>
<clipPath id="clip0_1897_326">
<rect width="149" height="149" fill="white"/>
</clipPath>
</defs>
</svg>
