<svg width="149" height="149" viewBox="0 0 149 149" fill="none" xmlns="http://www.w3.org/2000/svg">
<g clip-path="url(#clip0_1894_228)">
<path d="M114.078 0H34.9219C15.6351 0 0 15.6351 0 34.9219V114.078C0 133.365 15.6351 149 34.9219 149H114.078C133.365 149 149 133.365 149 114.078V34.9219C149 15.6351 133.365 0 114.078 0Z" fill="white"/>
<path d="M57.2288 23.8412H87.9012L56.061 122.673C55.734 123.689 55.111 124.571 54.2797 125.197C53.4485 125.822 52.4509 126.158 51.4275 126.158H27.5575C26.7823 126.158 26.0182 125.965 25.3284 125.594C24.6386 125.223 24.0429 124.686 23.5905 124.027C23.138 123.367 22.842 122.604 22.7272 121.801C22.6123 120.998 22.6819 120.177 22.9301 119.408L52.5953 27.3258C52.9226 26.3101 53.5457 25.4274 54.3769 24.8021C55.208 24.1767 56.2055 23.8401 57.2288 23.8396V23.8412Z" fill="url(#paint0_linear_1894_228)"/>
<path d="M101.8 90.1311H53.1612C52.7089 90.1302 52.2669 90.2721 51.8927 90.5383C51.5185 90.8045 51.2296 91.1826 51.0637 91.6234C50.8977 92.0642 50.8624 92.5471 50.9624 93.0092C51.0623 93.4714 51.2929 93.8912 51.624 94.214L82.8779 124.775C83.7883 125.664 84.9862 126.158 86.2305 126.159H113.772L101.8 90.1311Z" fill="#0078D4"/>
<path d="M57.2289 23.8414C56.1943 23.8368 55.1854 24.1791 54.3498 24.8183C53.5142 25.4575 52.8958 26.36 52.5849 27.3939L22.9672 119.324C22.703 120.097 22.6201 120.924 22.7256 121.737C22.8312 122.55 23.122 123.324 23.5735 123.995C24.025 124.665 24.6239 125.211 25.3196 125.588C26.0154 125.965 26.7874 126.16 27.5705 126.158H52.0572C52.9692 125.988 53.8216 125.567 54.5273 124.938C55.2331 124.309 55.7668 123.495 56.0739 122.58L61.98 104.344L83.0779 124.959C83.9618 125.725 85.0707 126.148 86.2179 126.158H113.657L101.622 90.1308L66.5411 90.1395L88.0122 23.8414H57.2289Z" fill="url(#paint1_linear_1894_228)"/>
<path d="M96.405 27.3212C96.078 26.307 95.4556 25.4258 94.6255 24.8016C93.7954 24.1773 92.7994 23.8415 91.7776 23.8413H57.5942C58.6159 23.8417 59.6118 24.1776 60.4417 24.8018C61.2717 25.426 61.8939 26.3071 62.2209 27.3212L91.8869 119.407C92.1352 120.177 92.205 120.997 92.0905 121.801C91.9759 122.604 91.6803 123.368 91.2281 124.028C90.7759 124.688 90.1801 125.225 89.4901 125.596C88.8001 125.967 88.0357 126.16 87.2602 126.16H121.445C122.22 126.159 122.984 125.966 123.674 125.594C124.363 125.223 124.959 124.686 125.411 124.026C125.863 123.366 126.158 122.603 126.273 121.8C126.388 120.997 126.319 120.177 126.071 119.407L96.405 27.3212Z" fill="url(#paint2_linear_1894_228)"/>
</g>
<defs>
<linearGradient id="paint0_linear_1894_228" x1="68.4084" y1="31.4233" x2="33.7956" y2="129.029" gradientUnits="userSpaceOnUse">
<stop stop-color="#114A8B"/>
<stop offset="1" stop-color="#0669BC"/>
</linearGradient>
<linearGradient id="paint1_linear_1894_228" x1="78.3585" y1="77.3661" x2="70.9229" y2="79.7656" gradientUnits="userSpaceOnUse">
<stop stop-opacity="0.3"/>
<stop offset="0.071" stop-opacity="0.2"/>
<stop offset="0.321" stop-opacity="0.1"/>
<stop offset="0.623" stop-opacity="0.05"/>
<stop offset="1" stop-opacity="0"/>
</linearGradient>
<linearGradient id="paint2_linear_1894_228" x1="74.3059" y1="28.5477" x2="112.225" y2="124.977" gradientUnits="userSpaceOnUse">
<stop stop-color="#3CCBF4"/>
<stop offset="1" stop-color="#2892DF"/>
</linearGradient>
<clipPath id="clip0_1894_228">
<rect width="149" height="149" fill="white"/>
</clipPath>
</defs>
</svg>
