<svg width="149" height="149" viewBox="0 0 149 149" fill="none" xmlns="http://www.w3.org/2000/svg">
<g clip-path="url(#clip0_1894_110)">
<path d="M114.078 0H34.9219C15.6351 0 0 15.6351 0 34.9219V114.078C0 133.365 15.6351 149 34.9219 149H114.078C133.365 149 149 133.365 149 114.078V34.9219C149 15.6351 133.365 0 114.078 0Z" fill="white"/>
</g>
<path d="M70.7416 15.0561C70.2945 15.104 68.8987 15.2721 67.6674 15.4195C62.7032 15.9952 57.074 17.511 52.1338 19.6268C34.2549 27.2215 20.7988 43.8844 17.0863 62.9965C16.2125 67.5418 16 69.7751 16 75.0172C16 81.7742 16.6605 86.437 18.411 92.329C24.1335 111.609 39.0315 126.731 58.0448 132.571C63.7674 134.329 68.3787 135 75 135C81.6463 135 86.2326 134.329 92.0282 132.549C110.992 126.731 125.866 111.585 131.611 92.2549C133.34 86.437 134 81.7489 134 75.0172C134 72.1557 133.86 68.8876 133.693 67.6836C131.777 53.7884 126.148 42.1038 116.763 32.5585C107.395 23.0865 95.9504 17.3419 82.5654 15.3942C80.7216 15.1293 72.1844 14.887 70.7416 15.0561ZM51.4696 52.9215C52.7259 53.3066 53.3134 53.6672 54.1651 54.5321C55.8214 56.2413 56.2001 57.1777 56.2001 59.749C56.2001 61.6751 56.1281 62.0348 55.5618 63.0434C54.4718 64.9179 51.9426 66.6497 50.193 66.6966C48.9617 66.7229 49.0125 66.1688 50.3593 64.7273C52.156 62.8274 52.4156 62.1071 52.4156 59.2681C52.3934 56.5287 52.0618 55.5924 50.8092 54.8223C49.7672 54.1734 48.6338 54.2213 46.9775 55.013C42.6729 57.1072 38.0145 64.0783 36.1957 71.2204C33.7819 80.7403 38.0616 88.3594 45.1088 87.0606C47.165 86.6755 51.0438 84.6583 52.7259 83.0693C54.1189 81.7742 54.1189 81.7489 54.2593 80.1392C54.5697 76.7706 56.9077 73.4066 60.0327 71.8439C61.4719 71.1208 61.8294 71.0513 63.7674 71.0513C65.6111 71.0513 66.037 71.1471 66.9358 71.6495C69.7966 73.3118 69.2054 77.181 66.109 77.181C64.3124 77.181 63.3886 76.2419 64.6911 75.7404C65.9686 75.2595 65.492 73.4545 64.0057 73.047C62.2552 72.5887 60.2673 73.7917 59.0147 76.0991C57.4998 78.8883 57.4305 82.2072 58.8706 83.7192C60.2673 85.234 62.0169 84.0347 63.3665 80.5928C64.074 78.8395 65.0911 77.9004 66.2753 77.9004C67.3145 77.9004 67.5057 78.5502 67.054 80.5233C66.3908 83.5755 66.8416 84.3681 68.7103 83.4327C69.3236 83.1425 70.3416 82.472 70.955 81.9912L72.1133 81.0521L72.8966 76.8917C73.7483 72.229 74.0763 71.6016 75.8267 71.2683C77.5079 70.9527 77.8867 71.796 77.2696 74.4632L76.9371 75.9564L78.1684 74.6792C81.0763 71.6495 84.6484 70.1601 85.8788 71.411C86.5393 72.0825 86.4673 72.9258 85.5223 75.9047C85.0743 77.3247 84.4572 79.5626 84.1764 80.8351C83.7506 82.7575 83.7247 83.2158 83.9639 83.5285C84.7214 84.4414 87.0372 83.5022 89.0944 81.4587L90.2999 80.2594L90.444 77.5886C90.5844 74.5111 90.8661 73.4066 91.6707 72.4196C92.4281 71.5068 93.7999 70.8353 94.5324 71.026C95.2649 71.2204 95.2649 71.9397 94.6045 74.0565C93.6807 76.965 93.7777 83.6713 94.7236 83.6713C95.1024 83.6713 97.0394 81.6052 98.2708 79.8744L99.1908 78.5972L98.4583 77.8309C97.1808 76.4597 96.8741 75.5713 96.8741 73.3334C96.8741 71.7012 96.9932 71.0992 97.3932 70.3028C98.0574 69.0557 99.0966 68.1429 100.327 67.7794C101.626 67.3718 103.235 68.0433 103.895 69.2463C104.56 70.4719 104.394 73.2122 103.542 75.0905L102.928 76.4588H103.755C104.891 76.4588 105.339 76.1724 107.374 74.2246C108.438 73.1906 109.669 72.2994 110.589 71.8665C114.208 70.1385 118.466 71.026 119.173 73.6705C119.764 75.7873 118.466 77.2768 116.193 77.1077C114.562 76.9875 114.255 76.5536 115.201 75.7404C116.903 74.2941 115.201 72.4459 112.765 73.1174C111.44 73.4799 109.951 74.9919 109.172 76.749C107.609 80.2594 108.438 84.3935 110.683 84.3935C111.582 84.3935 113.169 82.5894 113.782 80.8351C114.515 78.8141 116.052 77.5416 117.21 77.999C117.849 78.2384 117.896 78.8874 117.496 80.9309C117.045 83.1688 116.976 85.2603 117.329 86.221C117.471 86.5797 117.896 87.255 118.3 87.7104C119.054 88.5754 119.08 88.8881 118.441 89.2985C118.134 89.5145 117.729 89.4196 116.738 88.8665C115.366 88.1434 114.183 86.8446 113.757 85.619L113.498 84.8996L112.552 85.619C112.007 86.0041 111.156 86.437 110.661 86.5797C108.698 87.1085 106.284 85.7402 105.152 83.4327C104.7 82.5406 104.56 79.9223 104.891 78.9127C105.08 78.3586 105.08 78.3586 104.321 78.7437C103.921 78.9606 103.07 79.1992 102.409 79.2724C101.319 79.3945 101.153 79.5147 100.067 80.9084C98.5303 82.8524 95.809 85.4763 94.6978 86.0303C92.3348 87.2296 91.5552 86.8925 90.9382 84.4151L90.5123 82.7575L89.4944 83.6713C88.1956 84.8264 85.5943 86.221 84.1034 86.5581C82.6855 86.8699 81.1706 86.4116 80.5563 85.45C79.6372 84.0084 79.9438 80.9563 81.408 76.8438C82.4943 73.7917 81.7156 73.7447 78.973 76.6532C76.938 78.8395 76.0641 80.4022 75.4979 82.8308C74.9067 85.3551 74.1954 86.2679 72.59 86.653C71.6191 86.8699 71.1674 86.2679 71.3595 84.9475L71.5 83.8873L70.6012 84.5146C69.3236 85.403 67.7145 86.221 66.6032 86.5328C65.492 86.8446 64.0269 86.5102 63.6731 85.8829C63.0348 84.7794 63.0348 84.7794 62.0427 85.5711C59.8886 87.3508 56.8144 86.8446 55.2551 84.4892L54.7563 83.7445L53.198 85.2114C48.7021 89.3943 43.0766 91.2688 38.9133 89.97C33.6157 88.3378 30.6856 83.7192 30.7327 77.0608C30.7548 70.377 33.6628 63.3336 38.5595 58.1168C41.327 55.182 43.9283 53.4503 46.5775 52.8013C48.4897 52.3205 49.6517 52.3449 51.4696 52.9215Z" fill="#00C4CC"/>
<defs>
<clipPath id="clip0_1894_110">
<rect width="149" height="149" fill="white"/>
</clipPath>
</defs>
</svg>
