<svg width="149" height="149" viewBox="0 0 149 149" fill="none" xmlns="http://www.w3.org/2000/svg">
<g clip-path="url(#clip0_1894_122)">
<path d="M114.078 0H34.9219C15.6351 0 0 15.6351 0 34.9219V114.078C0 133.365 15.6351 149 34.9219 149H114.078C133.365 149 149 133.365 149 114.078V34.9219C149 15.6351 133.365 0 114.078 0Z" fill="white"/>
<g opacity="0.97">
<path d="M31 102.89L47.2046 90.6404C55.8141 101.728 64.9612 106.839 75.1425 106.839C85.2696 106.839 94.1581 101.788 102.38 90.7881L118.816 102.742C106.953 118.605 92.2116 126.986 75.1425 126.986C58.128 126.986 43.2438 118.658 31 102.89Z" fill="url(#paint0_linear_1894_122)"/>
<path d="M75.0884 49.6478L46.2453 74.1736L32.9126 58.9154L75.1496 23L117.053 58.9423L103.659 74.1467L75.0884 49.6478Z" fill="url(#paint1_linear_1894_122)"/>
</g>
</g>
<defs>
<linearGradient id="paint0_linear_1894_122" x1="31" y1="115.359" x2="118.816" y2="115.359" gradientUnits="userSpaceOnUse">
<stop stop-color="#8930FD"/>
<stop offset="1" stop-color="#49CCF9"/>
</linearGradient>
<linearGradient id="paint1_linear_1894_122" x1="32.9126" y1="57.8029" x2="117.053" y2="57.8029" gradientUnits="userSpaceOnUse">
<stop stop-color="#FF02F0"/>
<stop offset="1" stop-color="#FFC800"/>
</linearGradient>
<clipPath id="clip0_1894_122">
<rect width="149" height="149" fill="white"/>
</clipPath>
</defs>
</svg>
