<svg width="149" height="149" viewBox="0 0 149 149" fill="none" xmlns="http://www.w3.org/2000/svg">
<g clip-path="url(#clip0_1896_287)">
<path d="M114.078 0H34.9219C15.6351 0 0 15.6351 0 34.9219V114.078C0 133.365 15.6351 149 34.9219 149H114.078C133.365 149 149 133.365 149 114.078V34.9219C149 15.6351 133.365 0 114.078 0Z" fill="white"/>
<path d="M35.7363 126.203L27 20H123L114.255 126.187L74.9418 138L35.7363 126.203Z" fill="#1572B6"/>
<path d="M75.6606 130.245L107.428 120.699L114.902 29.9563H75.6606V130.245Z" fill="#33A9DC"/>
<path d="M75.6606 68.4345H91.5639L92.6622 55.0963H75.6606V42.0708H105.797L105.509 45.5657L102.554 81.46H75.6606V68.4345Z" fill="white"/>
<path d="M75.7346 102.263L75.6816 102.28L62.2974 98.3629L61.4415 87.9744H49.3789L51.062 108.427L75.6798 115.832L75.7346 115.815V102.263Z" fill="#EBEBEB"/>
<path d="M90.5423 80.9094L89.0946 98.3527L75.6904 102.274V115.826L100.328 108.426L100.509 106.225L102.6 80.9094H90.5423Z" fill="white"/>
<path d="M75.7018 42.0708V55.0963H46.6724L46.4317 52.1693L45.8843 45.5657L45.5967 42.0708H75.7018ZM75.661 68.4364V81.4619H62.4453L62.2046 78.5349L61.6563 71.9313L61.3696 68.4364H75.661Z" fill="#EBEBEB"/>
</g>
<defs>
<clipPath id="clip0_1896_287">
<rect width="149" height="149" fill="white"/>
</clipPath>
</defs>
</svg>
