<svg width="149" height="149" viewBox="0 0 149 149" fill="none" xmlns="http://www.w3.org/2000/svg">
<g clip-path="url(#clip0_1894_207)">
<path d="M114.078 0H34.9219C15.6351 0 0 15.6351 0 34.9219V114.078C0 133.365 15.6351 149 34.9219 149H114.078C133.365 149 149 133.365 149 114.078V34.9219C149 15.6351 133.365 0 114.078 0Z" fill="#092E20"/>
<path d="M105.869 50.6452V87.6386C105.869 100.386 104.91 106.499 102.034 111.784C99.3702 116.863 95.8549 120.074 88.6117 123.598L73.3776 116.551C80.622 113.236 84.1373 110.334 86.3739 105.877C88.7179 101.318 89.4644 96.0326 89.4644 82.147V50.6452H105.869ZM79.771 26V99.8679C71.3558 101.422 65.1772 102.044 58.4663 102.044C38.4393 102.044 28 93.2363 28 76.3444C28 60.0748 39.079 49.5056 56.2286 49.5056C58.8918 49.5056 60.9159 49.7123 63.3661 50.334V26.0011L79.771 26ZM57.8272 62.3544C49.5183 62.3544 44.7241 67.3287 44.7241 76.0327C44.7241 84.5311 49.3052 89.1937 57.721 89.1937C59.5309 89.1937 61.0227 89.0904 63.3661 88.7803V63.1828C61.4488 62.5616 59.8513 62.3544 57.8272 62.3544ZM105.869 26.0849V42.4584H89.4644V26.0855L105.869 26.0849Z" fill="#FFFFFD"/>
</g>
<defs>
<clipPath id="clip0_1894_207">
<rect width="149" height="149" fill="white"/>
</clipPath>
</defs>
</svg>
