<svg width="149" height="149" viewBox="0 0 149 149" fill="none" xmlns="http://www.w3.org/2000/svg">
<g clip-path="url(#clip0_1894_218)">
<path d="M114.078 0H34.9219C15.6351 0 0 15.6351 0 34.9219V114.078C0 133.365 15.6351 149 34.9219 149H114.078C133.365 149 149 133.365 149 114.078V34.9219C149 15.6351 133.365 0 114.078 0Z" fill="#2396ED"/>
<path d="M81.8991 71.8149H93.2287V61.9303H81.8991V71.8149ZM68.4121 71.8149H79.7412V61.9303H68.4121V71.8149ZM55.1941 71.8149H66.5237V61.9303H55.1941V71.8149ZM41.9762 71.8149H53.0367V61.9303H41.9767L41.9762 71.8149ZM28.4891 71.8149H39.8187V61.9303H28.4891V71.8149ZM41.9767 59.8494H53.0362V49.9654H41.9767V59.8494ZM55.1947 59.8494H66.5237V49.9654H55.1941L55.1947 59.8494ZM68.4121 59.8494H79.7412V49.9654H68.4121V59.8494ZM68.4121 47.884H79.7412V38H68.4121V47.884ZM129.375 67.3936C129.375 67.3936 124.519 62.9713 114.539 64.5322C113.46 56.9886 105.098 52.5668 105.098 52.5668C105.098 52.5668 97.2751 61.6709 102.94 71.8154C101.321 72.5959 98.6237 73.6363 94.5773 73.6363H20.397C19.0479 78.5786 19.0479 111.352 56.2731 111.352C82.9781 111.352 102.94 99.3876 112.381 77.5376C126.408 78.578 129.375 67.3936 129.375 67.3936Z" fill="white"/>
</g>
<defs>
<clipPath id="clip0_1894_218">
<rect width="149" height="149" fill="white"/>
</clipPath>
</defs>
</svg>
