<svg width="149" height="149" viewBox="0 0 149 149" fill="none" xmlns="http://www.w3.org/2000/svg">
<g clip-path="url(#clip0_1894_111)">
<path d="M114.078 0H34.9219C15.6351 0 0 15.6351 0 34.9219V114.078C0 133.365 15.6351 149 34.9219 149H114.078C133.365 149 149 133.365 149 114.078V34.9219C149 15.6351 133.365 0 114.078 0Z" fill="#F08705"/>
<path fill-rule="evenodd" clip-rule="evenodd" d="M77.4568 35.9594L94.7139 19L149 68.5V116C149 117.581 145.975 130.977 140.5 137C130.5 148 117.697 149 116 149L53.5 148.5L15 118.042L77.4568 35.9594Z" fill="#DF6C0C"/>
<path d="M127.392 84.6633H108.57L91.0212 56.3533H92.1641C93.8615 56.3533 95.4893 55.7253 96.6895 54.6076C97.8898 53.4899 98.564 51.974 98.564 50.3933V25.0633C98.564 23.4826 97.8898 21.9666 96.6895 20.8489C95.4893 19.7312 93.8615 19.1033 92.1641 19.1033H56.9928C55.2955 19.1033 53.6676 19.7312 52.4674 20.8489C51.2672 21.9666 50.5929 23.4826 50.5929 25.0633V50.3933C50.5929 51.974 51.2672 53.4899 52.4674 54.6076C53.6676 55.7253 55.2955 56.3533 56.9928 56.3533H58.1643L40.6158 84.6633H21.793C20.0957 84.6633 18.4678 85.2912 17.2676 86.4089C16.0673 87.5266 15.3931 89.0426 15.3931 90.6233V115.953C15.3931 117.534 16.0673 119.05 17.2676 120.168C18.4678 121.285 20.0957 121.913 21.793 121.913H56.9928C58.6902 121.913 60.3181 121.285 61.5183 120.168C62.7185 119.05 63.3928 117.534 63.3928 115.953V90.6233C63.3928 89.8406 63.2273 89.0656 62.9056 88.3425C62.584 87.6194 62.1126 86.9624 61.5183 86.4089C60.924 85.8555 60.2185 85.4165 59.442 85.117C58.6655 84.8174 57.8333 84.6633 56.9928 84.6633H51.6957L69.2499 56.3533H79.9356L97.4841 84.6633H92.1926C90.4953 84.6633 88.8674 85.2912 87.6672 86.4089C86.467 87.5266 85.7927 89.0426 85.7927 90.6233V115.953C85.7927 117.534 86.467 119.05 87.6672 120.168C88.8674 121.285 90.4953 121.913 92.1926 121.913H127.392C129.09 121.913 130.718 121.285 131.918 120.168C133.118 119.05 133.792 117.534 133.792 115.953V90.6233C133.792 89.0426 133.118 87.5266 131.918 86.4089C130.718 85.2912 129.09 84.6633 127.392 84.6633Z" fill="white"/>
</g>
<defs>
<clipPath id="clip0_1894_111">
<rect width="149" height="149" fill="white"/>
</clipPath>
</defs>
</svg>
