<svg width="149" height="149" viewBox="0 0 149 149" fill="none" xmlns="http://www.w3.org/2000/svg">
<g clip-path="url(#clip0_1894_223)">
<path d="M114.078 0H34.9219C15.6351 0 0 15.6351 0 34.9219V114.078C0 133.365 15.6351 149 34.9219 149H114.078C133.365 149 149 133.365 149 114.078V34.9219C149 15.6351 133.365 0 114.078 0Z" fill="white"/>
<path d="M52.8331 60.4709L74.0606 47.8807C74.327 47.7438 74.621 47.6726 74.919 47.6726C75.217 47.6726 75.5109 47.7438 75.7774 47.8807L97.095 60.4709C97.6375 60.7489 97.9989 61.3963 97.9989 61.9514V87.1319C97.9989 87.7803 97.6375 88.3354 97.095 88.7057L75.8675 101.296C75.601 101.433 75.3071 101.504 75.0091 101.504C74.7111 101.504 74.4172 101.433 74.1507 101.296L52.8331 88.7057C52.2906 88.4277 51.9292 87.7803 51.9292 87.1319V61.9514C51.9292 61.3954 52.2906 60.748 52.8331 60.4709Z" fill="#8080F2"/>
<path d="M130.243 72.2312L104.859 26.8696C103.956 25.2034 102.24 24 100.343 24H49.5764C47.7704 24 46.0536 25.2034 45.0605 26.8696L19.6767 72.1398C19.2329 72.9614 19 73.8851 19 74.8242C19 75.7633 19.2329 76.687 19.6767 77.5086L45.0605 122.501C45.9635 124.167 47.6794 125 49.5764 125H100.433C102.24 125 103.956 124.167 104.95 122.593L130.334 77.6009C131.237 75.7501 131.237 73.805 130.243 72.2312ZM109.195 93.9862C109.195 94.6345 108.833 95.282 108.201 95.56L75.8623 114.723C75.594 114.904 75.2799 115 74.9588 115C74.6378 115 74.3237 114.904 74.0554 114.723L41.6279 95.6532C41.0854 95.2829 40.6339 94.7278 40.6339 94.0795V55.6604C40.6339 55.0129 40.9952 54.3646 41.6279 54.0875L74.0563 34.9241C74.3246 34.7434 74.6386 34.6471 74.9597 34.6471C75.2808 34.6471 75.5948 34.7434 75.8632 34.9241L108.292 54.0875C108.834 54.4569 109.286 55.0129 109.286 55.6604V93.9871L109.195 93.9862Z" fill="#4B32C3"/>
</g>
<defs>
<clipPath id="clip0_1894_223">
<rect width="149" height="149" fill="white"/>
</clipPath>
</defs>
</svg>
