<svg width="149" height="149" viewBox="0 0 149 149" fill="none" xmlns="http://www.w3.org/2000/svg">
<g clip-path="url(#clip0_1877_56)">
<path d="M114.078 0H34.9219C15.6351 0 0 15.6351 0 34.9219V114.078C0 133.365 15.6351 149 34.9219 149H114.078C133.365 149 149 133.365 149 114.078V34.9219C149 15.6351 133.365 0 114.078 0Z" fill="#242938"/>
<mask id="mask0_1877_56" style="mask-type:luminance" maskUnits="userSpaceOnUse" x="35" y="16" width="79" height="117">
<path d="M35.5039 16.2969H113.124V132.703H35.5039V16.2969Z" fill="white"/>
</mask>
<g mask="url(#mask0_1877_56)">
<path d="M54.9131 132.703C65.6225 132.703 74.314 124.012 74.314 113.302V93.9009H54.9131C44.2038 93.9009 35.5117 102.593 35.5117 113.302C35.5117 124.012 44.2038 132.703 54.9131 132.703Z" fill="#0ACF83"/>
<path d="M35.5117 74.5C35.5117 63.7906 44.2038 55.0991 54.9131 55.0991H74.314V93.9008H54.9131C44.2038 93.9008 35.5117 85.2093 35.5117 74.5Z" fill="#A259FF"/>
<path d="M35.5117 35.6977C35.5117 24.9883 44.2038 16.2969 54.9131 16.2969H74.314V55.0992H54.9131C44.2038 55.0992 35.5117 46.4071 35.5117 35.6977Z" fill="#F24E1E"/>
<path d="M74.314 16.2969H93.7148C104.424 16.2969 113.116 24.9883 113.116 35.6977C113.116 46.4071 104.424 55.0992 93.7148 55.0992H74.314V16.2969Z" fill="#FF7262"/>
<path d="M113.116 74.5C113.116 85.2093 104.424 93.9008 93.7148 93.9008C83.0054 93.9008 74.314 85.2093 74.314 74.5C74.314 63.7906 83.0054 55.0991 93.7148 55.0991C104.424 55.0991 113.116 63.7906 113.116 74.5Z" fill="#1ABCFE"/>
</g>
</g>
<defs>
<clipPath id="clip0_1877_56">
<rect width="149" height="149" fill="white"/>
</clipPath>
</defs>
</svg>
