<svg width="149" height="149" viewBox="0 0 149 149" fill="none" xmlns="http://www.w3.org/2000/svg">
<g clip-path="url(#clip0_1897_325)">
<path d="M114.078 0H34.9219C15.6351 0 0 15.6351 0 34.9219V114.078C0 133.365 15.6351 149 34.9219 149H114.078C133.365 149 149 133.365 149 114.078V34.9219C149 15.6351 133.365 0 114.078 0Z" fill="white"/>
</g>
<path d="M134.661 69.556L80.5209 21.0932C77.4051 18.3023 72.3482 18.3023 69.2275 21.0932L57.9862 31.1579L72.247 43.9239C75.5623 42.9223 79.3618 43.5941 82.0032 45.9586C84.6583 48.3381 85.4029 51.7683 84.2565 54.7457L98.0007 67.05C101.326 66.0238 105.164 66.6868 107.818 69.068C111.531 72.3892 111.531 77.7733 107.818 81.0962C106.935 81.8865 105.888 82.5134 104.735 82.9411C103.582 83.3688 102.346 83.5889 101.097 83.5889C99.8492 83.5889 98.6133 83.3688 97.4602 82.9411C96.3071 82.5134 95.2594 81.8865 94.3771 81.0962C93.0517 79.9086 92.1482 78.3966 91.7803 76.7505C91.4124 75.1044 91.5965 73.3976 92.3093 71.8449L79.4924 60.3715L79.4905 90.5682C80.4204 90.9781 81.2695 91.521 82.0041 92.1756C85.7152 95.4968 85.7152 100.879 82.0041 104.207C78.2921 107.529 72.2755 107.529 68.5674 104.207C64.8563 100.88 64.8563 95.4977 68.5674 92.1756C69.4573 91.3794 70.5146 90.7488 71.6783 90.3203V59.8439C70.5133 59.4173 69.4556 58.7861 68.5674 57.9877C65.7561 55.4728 65.0793 51.7797 66.5213 48.688L52.4618 36.1023L15.339 69.3318C13.8413 70.6729 13 72.4916 13 74.3879C13 76.2842 13.8413 78.1029 15.339 79.444L69.4799 127.907C72.5977 130.698 77.6526 130.698 80.7753 127.907L134.662 79.6691C136.159 78.3276 137 76.5088 137 74.6124C137 72.716 136.158 70.8973 134.661 69.556Z" fill="#F34F29"/>
<defs>
<clipPath id="clip0_1897_325">
<rect width="149" height="149" fill="white"/>
</clipPath>
</defs>
</svg>
