<svg width="149" height="149" viewBox="0 0 149 149" fill="none" xmlns="http://www.w3.org/2000/svg">
<g clip-path="url(#clip0_1895_255)">
<path d="M114.078 0H34.9219C15.6351 0 0 15.6351 0 34.9219V114.078C0 133.365 15.6351 149 34.9219 149H114.078C133.365 149 149 133.365 149 114.078V34.9219C149 15.6351 133.365 0 114.078 0Z" fill="white"/>
<path d="M35.7368 125.204L27 19H123L114.252 125.187L74.9417 137L35.7368 125.204Z" fill="#E44F26"/>
<path d="M75 127.973L106.767 118.428L114.24 27.6858H75V127.973Z" fill="#F1662A"/>
<path d="M74.9999 67.0718H59.0971L58.0006 53.7336H74.9999V40.7073H44.8662L45.1539 44.2051L48.1051 80.0982H74.9999V67.0718ZM74.9999 100.9L74.9454 100.917L61.5622 97.0017L60.7068 86.6135H48.6417L50.3253 107.061L74.9454 114.47L74.9999 114.453V100.9Z" fill="#EBEBEB"/>
<path d="M74.957 67.0718V80.0982H89.7556L88.3636 96.9933L74.957 100.913V114.466L99.5966 107.061L99.7755 104.861L102.598 70.5697L102.894 67.0718H74.957ZM74.957 40.7073V53.7336H103.986L104.228 50.8089L104.776 44.2051L105.063 40.7073H74.957Z" fill="white"/>
</g>
<defs>
<clipPath id="clip0_1895_255">
<rect width="149" height="149" fill="white"/>
</clipPath>
</defs>
</svg>
