<svg width="149" height="149" viewBox="0 0 149 149" fill="none" xmlns="http://www.w3.org/2000/svg">
<g clip-path="url(#clip0_1894_202)">
<path d="M114.078 0H34.9219C15.6351 0 0 15.6351 0 34.9219V114.078C0 133.365 15.6351 149 34.9219 149H114.078C133.365 149 149 133.365 149 114.078V34.9219C149 15.6351 133.365 0 114.078 0Z" fill="white"/>
<path d="M30.8788 55.1884C35.2301 55.1884 38.7576 52.2449 38.7576 48.6139C38.7576 44.9828 35.2301 42.0393 30.8788 42.0393C26.5275 42.0393 23 44.9828 23 48.6139C23 52.2449 26.5275 55.1884 30.8788 55.1884Z" fill="#509EE3"/>
<path d="M30.8788 73.5966C35.2301 73.5966 38.7576 70.6531 38.7576 67.0221C38.7576 63.391 35.2301 60.4475 30.8788 60.4475C26.5275 60.4475 23 63.391 23 67.0221C23 70.6531 26.5275 73.5966 30.8788 73.5966Z" fill="#509EE3"/>
<path opacity="0.2" d="M52.9393 55.1884C57.2907 55.1884 60.8181 52.2449 60.8181 48.6139C60.8181 44.9828 57.2907 42.0393 52.9393 42.0393C48.588 42.0393 45.0605 44.9828 45.0605 48.6139C45.0605 52.2449 48.588 55.1884 52.9393 55.1884Z" fill="#509EE3"/>
<path d="M52.9393 73.7773C57.2907 73.7773 60.8181 70.8338 60.8181 67.2027C60.8181 63.5717 57.2907 60.6282 52.9393 60.6282C48.588 60.6282 45.0605 63.5717 45.0605 67.2027C45.0605 70.8338 48.588 73.7773 52.9393 73.7773Z" fill="#509EE3"/>
<path opacity="0.2" d="M74.9999 55.1884C79.3512 55.1884 82.8787 52.2449 82.8787 48.6139C82.8787 44.9828 79.3512 42.0393 74.9999 42.0393C70.6485 42.0393 67.1211 44.9828 67.1211 48.6139C67.1211 52.2449 70.6485 55.1884 74.9999 55.1884Z" fill="#509EE3"/>
<path opacity="0.2" d="M74.9999 34.1491C79.3512 34.1491 82.8787 31.2056 82.8787 27.5746C82.8787 23.9435 79.3512 21 74.9999 21C70.6485 21 67.1211 23.9435 67.1211 27.5746C67.1211 31.2056 70.6485 34.1491 74.9999 34.1491Z" fill="#509EE3"/>
<path opacity="0.2" d="M74.9999 73.7773C79.3512 73.7773 82.8787 70.8338 82.8787 67.2027C82.8787 63.5717 79.3512 60.6282 74.9999 60.6282C70.6485 60.6282 67.1211 63.5717 67.1211 67.2027C67.1211 70.8338 70.6485 73.7773 74.9999 73.7773Z" fill="#509EE3"/>
<path opacity="0.2" d="M97.0604 55.1884C101.412 55.1884 104.939 52.2449 104.939 48.6139C104.939 44.9828 101.412 42.0393 97.0604 42.0393C92.7091 42.0393 89.1816 44.9828 89.1816 48.6139C89.1816 52.2449 92.7091 55.1884 97.0604 55.1884Z" fill="#509EE3"/>
<path d="M119.121 55.1884C123.472 55.1884 127 52.2449 127 48.6139C127 44.9828 123.472 42.0393 119.121 42.0393C114.77 42.0393 111.242 44.9828 111.242 48.6139C111.242 52.2449 114.77 55.1884 119.121 55.1884Z" fill="#509EE3"/>
<path d="M97.0604 73.7773C101.412 73.7773 104.939 70.8338 104.939 67.2027C104.939 63.5717 101.412 60.6282 97.0604 60.6282C92.7091 60.6282 89.1816 63.5717 89.1816 67.2027C89.1816 70.8338 92.7091 73.7773 97.0604 73.7773Z" fill="#509EE3"/>
<path d="M119.121 73.7773C123.472 73.7773 127 70.8338 127 67.2027C127 63.5717 123.472 60.6282 119.121 60.6282C114.77 60.6282 111.242 63.5717 111.242 67.2027C111.242 70.8338 114.77 73.7773 119.121 73.7773Z" fill="#509EE3"/>
<path d="M30.8788 92.0039C35.2301 92.0039 38.7576 89.0603 38.7576 85.4293C38.7576 81.7983 35.2301 78.8547 30.8788 78.8547C26.5275 78.8547 23 81.7983 23 85.4293C23 89.0603 26.5275 92.0039 30.8788 92.0039Z" fill="#509EE3"/>
<path opacity="0.2" d="M52.9393 92.1848C57.2907 92.1848 60.8181 89.2412 60.8181 85.6102C60.8181 81.9792 57.2907 79.0356 52.9393 79.0356C48.588 79.0356 45.0605 81.9792 45.0605 85.6102C45.0605 89.2412 48.588 92.1848 52.9393 92.1848Z" fill="#509EE3"/>
<path d="M74.9999 92.1848C79.3512 92.1848 82.8787 89.2412 82.8787 85.6102C82.8787 81.9792 79.3512 79.0356 74.9999 79.0356C70.6485 79.0356 67.1211 81.9792 67.1211 85.6102C67.1211 89.2412 70.6485 92.1848 74.9999 92.1848Z" fill="#509EE3"/>
<path opacity="0.2" d="M97.0604 92.1848C101.412 92.1848 104.939 89.2412 104.939 85.6102C104.939 81.9792 101.412 79.0356 97.0604 79.0356C92.7091 79.0356 89.1816 81.9792 89.1816 85.6102C89.1816 89.2412 92.7091 92.1848 97.0604 92.1848Z" fill="#509EE3"/>
<path d="M119.121 92.1848C123.472 92.1848 127 89.2412 127 85.6102C127 81.9792 123.472 79.0356 119.121 79.0356C114.77 79.0356 111.242 81.9792 111.242 85.6102C111.242 89.2412 114.77 92.1848 119.121 92.1848Z" fill="#509EE3"/>
<path d="M30.8788 110.415C35.2301 110.415 38.7576 107.471 38.7576 103.84C38.7576 100.209 35.2301 97.2656 30.8788 97.2656C26.5275 97.2656 23 100.209 23 103.84C23 107.471 26.5275 110.415 30.8788 110.415Z" fill="#509EE3"/>
<path opacity="0.2" d="M52.9393 110.593C57.2907 110.593 60.8181 107.649 60.8181 104.018C60.8181 100.387 57.2907 97.4436 52.9393 97.4436C48.588 97.4436 45.0605 100.387 45.0605 104.018C45.0605 107.649 48.588 110.593 52.9393 110.593Z" fill="#509EE3"/>
<path opacity="0.2" d="M74.9999 110.593C79.3512 110.593 82.8787 107.649 82.8787 104.018C82.8787 100.387 79.3512 97.4436 74.9999 97.4436C70.6485 97.4436 67.1211 100.387 67.1211 104.018C67.1211 107.649 70.6485 110.593 74.9999 110.593Z" fill="#509EE3"/>
<path opacity="0.2" d="M74.9999 129C79.3512 129 82.8787 126.056 82.8787 122.425C82.8787 118.794 79.3512 115.851 74.9999 115.851C70.6485 115.851 67.1211 118.794 67.1211 122.425C67.1211 126.056 70.6485 129 74.9999 129Z" fill="#509EE3"/>
<path opacity="0.2" d="M97.0604 110.593C101.412 110.593 104.939 107.649 104.939 104.018C104.939 100.387 101.412 97.4436 97.0604 97.4436C92.7091 97.4436 89.1816 100.387 89.1816 104.018C89.1816 107.649 92.7091 110.593 97.0604 110.593Z" fill="#509EE3"/>
<path d="M119.121 110.593C123.472 110.593 127 107.649 127 104.018C127 100.387 123.472 97.4436 119.121 97.4436C114.77 97.4436 111.242 100.387 111.242 104.018C111.242 107.649 114.77 110.593 119.121 110.593Z" fill="#509EE3"/>
</g>
<defs>
<clipPath id="clip0_1894_202">
<rect width="149" height="149" fill="white"/>
</clipPath>
</defs>
</svg>
