<svg width="149" height="149" viewBox="0 0 149 149" fill="none" xmlns="http://www.w3.org/2000/svg">
<g clip-path="url(#clip0_1894_152)">
<path d="M114.078 0H34.9219C15.6351 0 0 15.6351 0 34.9219V114.078C0 133.365 15.6351 149 34.9219 149H114.078C133.365 149 149 133.365 149 114.078V34.9219C149 15.6351 133.365 0 114.078 0Z" fill="black"/>
<path d="M122.182 127.691L53.8699 42H41V101.576H51.2964V54.7337L114.098 133.755C116.928 131.911 119.629 129.885 122.182 127.691Z" fill="url(#paint0_linear_1894_152)"/>
<path d="M92.8491 42H103.049V101.6H92.8491V42Z" fill="url(#paint1_linear_1894_152)"/>
</g>
<defs>
<linearGradient id="paint0_linear_1894_152" x1="87.7499" y1="93.736" x2="116.962" y2="130.915" gradientUnits="userSpaceOnUse">
<stop stop-color="white"/>
<stop offset="1" stop-color="white" stop-opacity="0"/>
</linearGradient>
<linearGradient id="paint1_linear_1894_152" x1="97.9487" y1="41.9999" x2="97.7867" y2="85.7686" gradientUnits="userSpaceOnUse">
<stop stop-color="white"/>
<stop offset="1" stop-color="white" stop-opacity="0"/>
</linearGradient>
<clipPath id="clip0_1894_152">
<rect width="149" height="149" fill="white"/>
</clipPath>
</defs>
</svg>
