<svg width="149" height="149" viewBox="0 0 149 149" fill="none" xmlns="http://www.w3.org/2000/svg">
<g clip-path="url(#clip0_1902_357)">
<path d="M114.078 0H34.9219C15.6351 0 0 15.6351 0 34.9219V114.078C0 133.365 15.6351 149 34.9219 149H114.078C133.365 149 149 133.365 149 114.078V34.9219C149 15.6351 133.365 0 114.078 0Z" fill="white"/>
</g>
<path d="M95.6579 114.332C83.3904 114.332 78.7193 111.059 78.7193 105.583C78.6828 104.68 78.822 103.779 79.1289 102.931C79.4358 102.084 79.9042 101.306 80.5071 100.645C81.1101 99.9831 81.8355 99.45 82.6416 99.0762C83.4476 98.7025 84.3182 98.4954 85.2031 98.4672V97.6845C83.8378 97.3747 82.6223 96.5856 81.7687 95.4549C80.915 94.3241 80.4773 92.9234 80.532 91.497C80.532 87.6545 83.736 85.7333 87.2219 84.9506V84.666C85.1719 83.7648 83.4399 82.247 82.257 80.315C81.0742 78.3831 80.4967 76.1289 80.6017 73.8533C80.6017 66.3107 85.8276 61.2617 95.6579 61.2617C97.8063 61.2258 99.9468 61.538 101.999 62.1868V60.9771C101.894 60.2546 101.954 59.5171 102.174 58.8221C102.394 58.127 102.768 57.4931 103.267 56.9698C103.767 56.4465 104.377 56.0478 105.052 55.8049C105.727 55.562 106.448 55.4813 107.158 55.5692H112.803V62.5426H105.067V63.5357C106.864 64.539 108.347 66.0396 109.345 67.8648C110.343 69.69 110.817 71.7657 110.711 73.8533C110.711 81.3216 105.552 86.3026 95.6549 86.3026C93.7768 86.3283 91.9029 86.1131 90.0774 85.6622C89.3709 85.8941 88.7482 86.336 88.2892 86.9312C87.8302 87.5265 87.5557 88.248 87.5008 89.0034C87.5008 90.8566 89.0346 91.7785 92.2387 91.7785H101.999C110.92 91.7785 114.755 95.6921 114.755 102.381C114.755 110.134 109.596 114.332 95.6579 114.332ZM100.187 99.6768H87.7797C87.18 100.109 86.6943 100.687 86.3659 101.357C86.0375 102.027 85.8765 102.77 85.8973 103.519C85.8973 106.366 87.9889 108.073 93.5664 108.073H98.0223C103.812 108.073 106.389 106.579 106.389 103.448C106.389 101.097 104.718 99.6768 100.187 99.6768ZM102.208 74.4226V73.2129C102.208 69.4416 99.9077 67.5204 95.6579 67.5204C91.4081 67.5204 89.1044 69.4385 89.1044 73.2129V74.4195C89.1044 78.1196 91.4051 80.112 95.6579 80.112C99.9108 80.112 102.205 78.1196 102.205 74.4195L102.208 74.4226ZM39.9526 99.2499V49.5952H61.8383C70.832 49.5952 76.267 55.7827 76.267 64.9619C76.267 74.2122 70.832 80.3285 61.8383 80.3285H49.1555V99.2499H39.9526ZM49.1555 72.2167H61.0047C61.7589 72.3088 62.5238 72.2285 63.244 71.9817C63.9641 71.7349 64.6214 71.3277 65.1683 70.7896C65.7153 70.2516 66.1381 69.5961 66.4062 68.8707C66.6743 68.1453 66.781 67.3681 66.7186 66.5954V63.3222C66.7798 62.553 66.6716 61.7796 66.4019 61.0586C66.1322 60.3376 65.7079 59.6874 65.16 59.1555C64.6121 58.6236 63.9546 58.2236 63.2356 57.9847C62.5166 57.7459 61.7543 57.6742 61.0047 57.7751H49.1525L49.1555 72.2167Z" fill="#3385F2"/>
<defs>
<clipPath id="clip0_1902_357">
<rect width="149" height="149" fill="white"/>
</clipPath>
</defs>
</svg>
