<svg width="149" height="149" viewBox="0 0 149 149" fill="none" xmlns="http://www.w3.org/2000/svg">
<g clip-path="url(#clip0_1894_197)">
<path d="M114.078 0H34.9219C15.6351 0 0 15.6351 0 34.9219V114.078C0 133.365 15.6351 149 34.9219 149H114.078C133.365 149 149 133.365 149 114.078V34.9219C149 15.6351 133.365 0 114.078 0Z" fill="white"/>
<path d="M131.696 86.6797C131.004 84.5079 129.194 82.9953 126.852 82.6323C125.748 82.4613 124.484 82.5342 122.987 82.8542C120.379 83.4124 118.444 83.625 117.032 83.6661C122.362 74.3301 126.696 63.6837 129.192 53.6619C133.226 37.457 131.07 30.0746 128.551 26.7354C121.883 17.8969 112.155 13.1488 100.42 13.0035C94.1593 12.9241 88.6634 14.2064 85.7964 15.1286C83.127 14.6399 80.2568 14.3671 77.2452 14.3167C71.5998 14.2232 66.6119 15.5 62.3498 18.124C59.9903 17.2962 56.2033 16.1292 51.83 15.3846C41.5443 13.6328 33.2543 14.9978 27.1906 19.4418C19.848 24.8224 16.4442 34.171 17.0737 47.2279C17.2737 51.3734 19.5089 63.9864 23.0285 75.9483C25.0512 82.8238 27.2081 88.5333 29.4394 92.9199C32.6036 99.14 35.9894 102.803 39.7904 104.118C41.9207 104.855 45.7915 105.37 49.8626 101.853C50.3787 102.501 51.0672 103.145 51.9808 103.744C53.1412 104.503 54.5601 105.123 55.9772 105.491C61.084 106.815 65.8675 106.484 69.9486 104.628C69.9738 105.381 69.9932 106.1 70.0094 106.721C70.0364 107.729 70.0634 108.717 70.099 109.641C70.3408 115.889 70.7506 120.747 71.9646 124.146C72.0312 124.332 72.1208 124.617 72.2154 124.92C72.821 126.843 73.8338 130.064 76.4104 132.586C79.0784 135.199 82.3057 136 85.2614 136C86.7438 136 88.1582 135.798 89.3987 135.523C93.8207 134.539 98.8428 133.042 102.476 127.675C105.911 122.602 107.58 114.96 107.883 102.921C107.922 102.58 107.958 102.255 107.992 101.945L108.064 101.309L108.874 101.383L109.082 101.397C113.586 101.61 119.093 100.619 122.475 98.9895C125.148 97.703 133.712 93.0124 131.696 86.6797Z" fill="black"/>
<path d="M123.995 87.9114C110.603 90.7774 109.683 86.0737 109.683 86.0737C123.822 64.3077 129.733 36.6791 124.632 29.917C110.716 11.4716 86.6277 20.1952 86.2256 20.4213L86.0964 20.4456C83.4504 19.8757 80.4897 19.5365 77.1616 19.48C71.1024 19.3772 66.5057 21.1281 63.0177 23.8721C63.0177 23.8721 20.0458 5.50657 22.0447 46.9699C22.4698 55.7906 34.2315 113.713 48.2601 96.2178C53.3877 89.8202 58.3423 84.4111 58.3423 84.4111C60.8027 86.1068 63.7486 86.972 66.8367 86.6613L67.0767 86.4502C67.002 87.2443 67.0362 88.0212 67.1726 88.941C63.5585 93.13 64.6208 93.8653 57.3962 95.4083C50.0856 96.9713 54.3801 99.7537 57.1841 100.482C60.5834 101.363 68.4474 102.612 73.7609 94.8953L73.5493 95.7759C74.965 96.9527 75.9593 103.429 75.7927 109.301C75.6261 115.172 75.5148 119.203 76.6302 122.352C77.7465 125.5 78.8583 132.585 88.356 130.474C96.2916 128.709 100.404 124.137 100.976 116.51C101.382 111.089 102.301 111.89 102.359 107.043L103.096 104.748C103.946 97.3983 103.231 95.0271 108.12 96.13L109.309 96.2384C112.907 96.408 117.617 95.6376 120.381 94.3049C126.333 91.4394 129.864 86.6543 123.994 87.9114H123.995Z" fill="#336791"/>
<path d="M65.5331 50.9117C64.3263 50.7374 63.2334 50.8986 62.6804 51.3331C62.3697 51.5774 62.2734 51.8605 62.2473 52.0553C62.1779 52.5715 62.5264 53.1423 62.7408 53.4366C63.3469 54.27 64.2322 54.8428 65.1084 54.9689C65.2354 54.9873 65.3618 54.9963 65.4876 54.996C66.9488 54.996 68.2776 53.8155 68.3947 52.9443C68.5411 51.853 67.0141 51.1252 65.5331 50.9117ZM105.512 50.9463C105.397 50.0909 103.93 49.8471 102.538 50.0479C101.147 50.2488 99.7989 50.9 99.9115 51.7572C100.002 52.4239 101.162 53.5618 102.535 53.5618C102.652 53.5618 102.769 53.5534 102.887 53.5366C103.803 53.4049 104.476 52.8008 104.796 52.4528C105.282 51.9221 105.564 51.3307 105.512 50.9463Z" fill="white"/>
<path d="M128.451 87.5842C127.94 85.9823 126.296 85.4671 123.566 86.0519C115.458 87.7879 112.555 86.5854 111.601 85.8571C117.903 75.8975 123.088 63.8581 125.884 52.6255C127.209 47.3046 127.941 42.3631 128.001 38.3353C128.067 33.9147 127.341 30.6661 125.844 28.6817C119.809 20.6817 110.952 16.3905 100.231 16.2728C92.8596 16.1868 86.632 18.1437 85.4247 18.694C82.8824 18.0381 80.1108 17.6354 77.0933 17.5841C71.5601 17.4911 66.777 18.8654 62.8171 21.667C61.097 21.0027 56.6516 19.4195 51.2152 18.5109C41.8166 16.9413 34.3479 18.1306 29.0182 22.0477C22.6586 26.722 19.7227 35.0774 20.2914 46.8814C20.4828 50.8526 22.664 63.0696 26.1061 74.7693C30.637 90.1685 35.5624 98.886 40.7444 100.679C41.351 100.889 42.0503 101.036 42.8216 101.036C44.712 101.036 47.0297 100.152 49.441 97.1444C52.3822 93.4841 55.4246 89.9127 58.5645 86.4345C60.6016 87.5688 62.8396 88.2022 65.1285 88.2658C65.1333 88.3281 65.1385 88.39 65.1442 88.4517C64.7503 88.9391 64.3644 89.4336 63.987 89.9349C62.401 92.0235 62.071 92.4584 56.9659 93.5488C55.5137 93.8599 51.6569 94.6844 51.6002 97.4892C51.5389 100.554 56.1594 101.841 56.6858 101.977C58.5204 102.454 60.2878 102.689 61.9732 102.689C66.0723 102.689 69.6796 101.291 72.5624 98.5865C72.4737 109.511 72.9128 120.276 74.1772 123.556C75.2129 126.241 77.7427 132.803 85.7336 132.803C86.9062 132.803 88.1968 132.661 89.6166 132.346C97.9565 130.491 101.578 126.667 102.979 118.236C103.729 113.731 105.015 102.972 105.621 97.2005C106.898 97.6139 108.542 97.8031 110.319 97.8026C114.026 97.8026 118.303 96.9856 120.986 95.6939C123.999 94.242 129.437 90.6795 128.451 87.5842ZM108.59 48.5865C108.562 50.2902 108.336 51.8369 108.097 53.4514C107.839 55.1878 107.572 56.983 107.505 59.1623C107.439 61.2832 107.694 63.4881 107.941 65.6207C108.44 69.9278 108.952 74.362 106.97 78.7373C106.641 78.1319 106.348 77.5065 106.092 76.8645C105.846 76.2451 105.311 75.25 104.57 73.8729C101.689 68.5119 94.9409 55.9577 98.3951 50.8349C99.424 49.3101 102.035 47.7423 108.59 48.5865ZM100.645 19.7227C110.251 19.9427 117.851 23.671 123.231 30.8035C127.357 36.2743 122.813 61.1673 109.659 82.6427C109.527 82.4682 109.394 82.2942 109.26 82.1209L109.093 81.9051C112.493 76.0811 111.828 70.3188 111.236 65.21C110.993 63.1135 110.763 61.1332 110.822 59.273C110.882 57.3016 111.134 55.6106 111.377 53.9755C111.675 51.9607 111.979 49.8758 111.895 47.4181C111.958 47.1603 111.983 46.8557 111.95 46.4941C111.737 44.1373 109.143 37.0838 103.856 30.6998C100.965 27.2078 96.7475 23.3001 90.9895 20.6644C93.4662 20.1319 96.8528 19.6353 100.645 19.7227ZM46.8892 94.9432C44.2324 98.2572 42.3979 97.6219 41.7945 97.4135C37.8634 96.0532 33.3019 87.4333 29.2803 73.7645C25.8004 61.9372 23.7668 50.044 23.6056 46.709C23.0977 36.1617 25.5622 28.8111 30.9311 24.8609C39.6686 18.4329 54.034 22.2803 59.8064 24.2316C59.7236 24.3166 59.6371 24.396 59.5551 24.4825C50.0827 34.4066 50.3074 51.3623 50.3308 52.3989C50.3299 52.7988 50.3623 53.365 50.4064 54.1437C50.5694 56.9957 50.8729 62.3034 50.0624 68.3142C49.3095 73.9 50.9693 79.367 54.6154 83.314C54.9894 83.7184 55.3827 84.1032 55.7938 84.4669C54.1709 86.2701 50.6437 90.2577 46.8892 94.9432ZM57.0114 80.932C54.0728 77.7507 52.7381 73.3258 53.3491 68.7907C54.2047 62.4412 53.889 56.9111 53.7193 53.94C53.6954 53.5243 53.6742 53.1599 53.6621 52.8726C55.0459 51.5996 61.4585 48.0353 66.0318 49.1223C68.1184 49.618 69.3901 51.0923 69.9187 53.628C72.6548 66.7563 70.2808 72.228 68.3733 76.6253C67.9802 77.5311 67.6087 78.3874 67.2917 79.2731L67.0458 79.958C66.4235 81.6892 65.8444 83.299 65.4856 84.8275C62.3614 84.8182 59.3223 83.4336 57.0114 80.9315M57.491 98.6365C56.5787 98.4001 55.7582 97.9895 55.2769 97.649C55.679 97.4528 56.3945 97.1855 57.6355 96.9202C63.6411 95.6379 64.5688 94.7325 66.5942 92.0646C67.0584 91.4527 67.5848 90.7594 68.3139 89.9148L68.3148 89.9139C69.4004 88.6526 69.8971 88.8665 70.7977 89.2543C71.5277 89.5673 72.2387 90.5165 72.5269 91.561C72.6633 92.0544 72.8164 92.9905 72.3152 93.7193C68.0842 99.8651 61.9188 99.7862 57.491 98.6365ZM88.9213 128.979C81.5742 130.612 78.9729 126.723 77.2586 122.277C76.1522 119.407 75.6083 106.464 75.9942 92.1707C75.9991 91.9806 75.973 91.797 75.9226 91.6241C75.8775 91.2828 75.8089 90.9453 75.7172 90.6141C75.1435 88.5344 73.7454 86.7947 72.068 86.0734C71.4016 85.7871 70.1786 85.2615 68.7088 85.6516C69.0222 84.3118 69.5657 82.7987 70.1551 81.1604L70.4024 80.4714C70.6806 79.6945 71.0301 78.8896 71.3993 78.0375C73.3955 73.437 76.1292 67.1356 73.1622 52.9002C72.0509 47.5681 68.3395 44.9642 62.7135 45.5692C59.3408 45.9312 56.2549 47.3429 54.7158 48.1525C54.3848 48.3263 54.0822 48.4945 53.7994 48.658C54.229 43.2857 55.8519 33.2457 61.9228 26.8934C65.7454 22.8946 70.836 20.9195 77.0384 21.026C89.2595 21.2334 97.0965 27.7399 101.519 33.1621C105.331 37.8341 107.394 42.5406 108.218 45.0791C102.024 44.4256 97.8115 45.6939 95.6762 48.8612C91.0305 55.7507 98.2177 69.1224 101.672 75.549C102.306 76.7267 102.852 77.7446 103.024 78.1772C104.149 81.0053 105.605 82.8935 106.668 84.2716C106.994 84.6939 107.311 85.1036 107.551 85.4615C105.675 86.0225 102.306 87.3189 102.613 93.7987C102.365 97.0501 100.604 112.273 99.7091 117.651C98.528 124.756 96.0076 127.402 88.9213 128.979ZM119.588 92.5715C117.67 93.4951 114.46 94.1878 111.411 94.3369C108.042 94.5004 106.328 93.9454 105.924 93.6039C105.735 89.5658 107.184 89.144 108.717 88.6974C108.958 88.6273 109.193 88.5587 109.42 88.4765C109.561 88.5957 109.715 88.7135 109.884 88.8296C112.592 90.6833 117.42 90.8832 124.237 89.4234L124.312 89.408C123.392 90.2997 121.819 91.4966 119.588 92.5715Z" fill="white"/>
</g>
<defs>
<clipPath id="clip0_1894_197">
<rect width="149" height="149" fill="white"/>
</clipPath>
</defs>
</svg>
