<svg width="149" height="149" viewBox="0 0 149 149" fill="none" xmlns="http://www.w3.org/2000/svg">
<g clip-path="url(#clip0_1895_246)">
<path d="M114.078 0H34.9219C15.6351 0 0 15.6351 0 34.9219V114.078C0 133.365 15.6351 149 34.9219 149H114.078C133.365 149 149 133.365 149 114.078V34.9219C149 15.6351 133.365 0 114.078 0Z" fill="black"/>
<path d="M73.9245 25.6739C69.9334 25.6929 66.1238 26.0351 62.7698 26.6337C52.8913 28.3931 51.099 32.076 51.099 38.8689V47.8388H74.4416V50.8287H42.3378C35.5543 50.8287 29.6139 54.9396 27.7554 62.7628C25.6115 71.7269 25.5169 77.3218 27.7554 86.6824C29.4145 93.6507 33.3772 98.6146 40.1617 98.6146H48.1884V87.8614C48.1884 80.0925 54.8538 73.2405 62.7708 73.2405H86.0869C92.5774 73.2405 97.7577 67.8515 97.7577 61.2807V38.8699C97.7577 32.4906 92.4205 27.6992 86.0869 26.6346C82.075 25.9617 77.9147 25.6557 73.9245 25.6739ZM61.3008 32.8881C63.7113 32.8881 65.6814 34.9058 65.6814 37.3878C65.6814 39.8592 63.7123 41.8579 61.3008 41.8579C58.8808 41.8579 56.9212 39.8592 56.9212 37.3878C56.9202 34.9058 58.8808 32.8881 61.3008 32.8881Z" fill="url(#paint0_linear_1895_246)"/>
<path d="M100.668 50.8288V61.2808C100.668 69.3824 93.8542 76.202 86.0856 76.202H62.7695C56.3829 76.202 51.0986 81.7139 51.0986 88.1627V110.575C51.0986 116.953 56.5985 120.705 62.7695 122.534C70.158 124.724 77.2441 125.12 86.0856 122.534C91.9617 120.818 97.7564 117.366 97.7564 110.575V101.605H74.4412V98.6138H109.429C116.213 98.6138 118.742 93.8434 121.102 86.6816C123.539 79.3092 123.434 72.2189 121.102 62.762C119.425 55.9519 116.223 50.8279 109.429 50.8279L100.668 50.8288ZM87.5537 107.585C89.9746 107.585 91.9342 109.583 91.9342 112.057C91.9342 114.537 89.9737 116.554 87.5537 116.554C85.1431 116.554 83.174 114.537 83.174 112.057C83.174 109.583 85.1431 107.585 87.5537 107.585Z" fill="url(#paint1_linear_1895_246)"/>
<path opacity="0.444" d="M105.987 127.991C105.987 131.368 91.9817 134.106 74.7061 134.106C57.4296 134.106 43.4238 131.368 43.4238 127.991C43.4238 124.614 57.4286 121.875 74.7061 121.875C91.9817 121.875 105.987 124.612 105.987 127.991Z" fill="url(#paint2_radial_1895_246)"/>
</g>
<defs>
<linearGradient id="paint0_linear_1895_246" x1="23.7718" y1="28.4785" x2="77.9835" y2="74.3311" gradientUnits="userSpaceOnUse">
<stop stop-color="#5A9FD4"/>
<stop offset="1" stop-color="#306998"/>
</linearGradient>
<linearGradient id="paint1_linear_1895_246" x1="97.8669" y1="103.548" x2="78.3481" y2="76.4008" gradientUnits="userSpaceOnUse">
<stop stop-color="#FFD43B"/>
<stop offset="1" stop-color="#FFE873"/>
</linearGradient>
<radialGradient id="paint2_radial_1895_246" cx="0" cy="0" r="1" gradientUnits="userSpaceOnUse" gradientTransform="translate(74.5797 127.816) rotate(-90) scale(6.11746 26.6709)">
<stop stop-color="#B8B8B8" stop-opacity="0.498"/>
<stop offset="1" stop-color="#7F7F7F" stop-opacity="0"/>
</radialGradient>
<clipPath id="clip0_1895_246">
<rect width="149" height="149" fill="white"/>
</clipPath>
</defs>
</svg>
