<svg width="149" height="149" viewBox="0 0 149 149" fill="none" xmlns="http://www.w3.org/2000/svg">
<g clip-path="url(#clip0_1896_300)">
<path d="M114.078 0H34.9219C15.6351 0 0 15.6351 0 34.9219V114.078C0 133.365 15.6351 149 34.9219 149H114.078C133.365 149 149 133.365 149 114.078V34.9219C149 15.6351 133.365 0 114.078 0Z" fill="#242938"/>
<path d="M57.1152 22.0018C56.6116 22.0173 56.0696 22.2029 55.4541 22.6848C53.9464 22.107 52.4855 21.9075 51.1778 23.0831C49.1596 22.8225 48.5042 23.36 48.0068 23.9865C47.5645 23.9772 44.6924 23.5333 43.3756 25.487C40.0666 25.0971 39.0195 27.4205 40.2045 29.5885C39.5292 30.6288 38.8279 31.6559 40.4084 33.6382C39.8504 34.7427 40.1969 35.94 41.5145 37.3909C41.1665 38.9432 41.8494 40.0376 43.0751 40.8915C42.8451 43.0154 45.035 44.2513 45.6889 44.6906C45.9395 45.9281 46.463 47.0968 48.9641 47.7418C49.3758 49.588 50.8796 49.9059 52.3345 50.2926C47.5247 53.0724 43.3993 56.7276 43.4277 65.6995L42.7225 66.9486C37.2075 70.2821 32.2451 80.9958 40.0045 89.7047C40.5119 92.431 41.3612 94.3886 42.1185 96.5558C43.2506 105.289 50.6382 109.377 52.5866 109.861C55.4426 112.022 58.4834 114.073 62.5987 115.51C66.4773 119.487 70.6808 121.002 74.9073 121H75.0935C79.3193 121.003 83.5228 119.487 87.4013 115.51C91.5174 114.073 94.5574 112.022 97.4126 109.861C99.3618 109.377 106.749 105.289 107.881 96.555C108.637 94.3886 109.488 92.431 109.996 89.7047C117.755 80.9958 112.793 70.2806 107.277 66.9463L106.572 65.698C106.6 56.7276 102.475 53.0716 97.6648 50.2911C99.1196 49.9044 100.624 49.5865 101.036 47.7411C103.535 47.0952 104.059 45.9273 104.31 44.6899C104.964 44.249 107.153 43.0146 106.923 40.8892C108.15 40.0369 108.833 38.9409 108.486 37.3894C109.802 35.9392 110.149 34.7411 109.589 33.6374C111.171 31.6559 110.469 30.628 109.794 29.5877C110.979 27.4205 109.934 25.0964 106.623 25.4854C105.306 23.5333 102.435 23.9772 101.992 23.9849C101.494 23.3585 100.839 22.8217 98.8207 23.0823C97.5146 21.9067 96.0528 22.1078 94.5451 22.6848C92.7561 21.2818 91.5711 22.4064 90.2182 22.8317C88.0513 22.1279 87.5561 23.0924 86.4915 23.4845C84.1283 22.988 83.4101 24.0685 82.2772 25.2093L80.9588 25.1838C77.3954 27.2713 75.624 31.5221 74.9977 33.707C74.3692 31.5213 72.6032 27.2705 69.0397 25.1838L67.7213 25.2085C66.5869 24.0677 65.8686 22.988 63.5055 23.4845C62.4416 23.0924 61.9472 22.1279 59.7788 22.8317C58.8904 22.5533 58.0741 21.9717 57.1129 22.0011L57.1152 22.0018Z" fill="#050606"/>
<path d="M50.0905 31.1871C59.5469 36.0319 65.0435 39.9525 68.0551 43.2906C66.5136 49.434 58.4676 49.7148 55.525 49.5415C56.1275 49.2631 56.6311 48.929 56.8089 48.4177C56.0708 47.8957 53.4531 48.362 51.6258 47.3411C52.3272 47.1965 52.656 47.0557 52.984 46.5414C51.2571 45.9938 49.3983 45.522 48.3038 44.6155C48.894 44.6232 49.4459 44.747 50.2162 44.2149C48.6694 43.3873 47.0199 42.7306 45.7375 41.4645C46.5362 41.4452 47.3993 41.4568 47.6499 41.1644C46.2342 40.2935 45.0392 39.3237 44.052 38.264C45.1711 38.3986 45.6432 38.2826 45.9146 38.0877C44.843 36.9995 43.4894 36.0799 42.844 34.7379C43.6748 35.0233 44.4352 35.1324 44.9825 34.7124C44.6184 33.8972 43.0616 33.4161 42.1641 31.5119C43.0386 31.5962 43.9669 31.7014 44.1524 31.5119C43.7461 29.8676 43.0501 28.9441 42.3664 27.9866C44.2382 27.9588 47.0743 27.9936 46.9463 27.8358L45.7889 26.6609C47.617 26.1721 49.488 26.7398 50.8463 27.1614C51.4556 26.6826 50.8355 26.0785 50.0913 25.4598C51.6457 25.6671 53.0492 26.0229 54.3178 26.5109C54.9961 25.9022 53.8778 25.2943 53.3366 24.6856C55.7381 25.138 56.7553 25.7738 57.7647 26.4103C58.499 25.7119 57.8069 25.1187 57.3125 24.5108C59.123 25.1767 60.0551 26.0375 61.0369 26.8852C61.3696 26.4397 61.8816 26.1118 61.2631 25.0352C62.5477 25.7715 63.5166 26.6393 64.231 27.6107C65.0266 27.108 64.7054 26.4196 64.71 25.7854C66.0453 26.8659 66.8938 28.0145 67.9309 29.1367C68.1394 28.9859 68.3218 28.4723 68.4843 27.661C71.6707 30.7331 76.1724 38.4721 69.6417 41.5403C64.083 36.9848 57.4443 33.6721 50.0882 31.1871H50.0905ZM100.176 31.1871C90.7199 36.0327 85.2232 39.9517 82.2116 43.2906C83.7539 49.434 91.8006 49.7148 94.7417 49.5415C94.1392 49.2631 93.6364 48.929 93.4586 48.4177C94.1975 47.8957 96.8143 48.362 98.6424 47.3411C97.9403 47.1965 97.6107 47.0557 97.2834 46.5414C99.0096 45.9938 100.87 45.522 101.963 44.6155C101.373 44.6232 100.821 44.747 100.051 44.2149C101.597 43.3873 103.247 42.7306 104.53 41.4645C103.73 41.4452 102.868 41.4568 102.618 41.1644C104.033 40.2935 105.227 39.3237 106.216 38.264C105.096 38.3986 104.624 38.2826 104.353 38.0877C105.424 36.9995 106.778 36.0799 107.424 34.7379C106.593 35.0233 105.832 35.1324 105.285 34.7124C105.648 33.8972 107.205 33.4161 108.103 31.5119C107.228 31.5962 106.301 31.7014 106.114 31.5119C106.522 29.8676 107.218 28.9434 107.901 27.9851C106.029 27.958 103.193 27.9928 103.321 27.8358L104.48 26.6609C102.65 26.1714 100.779 26.7383 99.422 27.1598C98.8118 26.6818 99.4327 26.0778 100.176 25.4598C98.6233 25.6663 97.2183 26.0213 95.9497 26.5101C95.2714 25.9014 96.3897 25.2935 96.9308 24.6848C94.5301 25.1373 93.5138 25.773 92.5027 26.4096C91.7692 25.7112 92.4614 25.1179 92.955 24.51C91.1445 25.1759 90.2124 26.0368 89.2313 26.8845C88.8994 26.439 88.3858 26.111 89.0044 25.0344C87.7197 25.7707 86.7509 26.6385 86.0365 27.6099C85.2409 27.1064 85.562 26.4189 85.5574 25.7846C84.2222 26.8651 83.3737 28.0145 82.3374 29.1359C82.1281 28.9851 81.9457 28.4708 81.7832 27.6602C78.5976 30.7323 74.0951 38.4713 80.6257 41.5395C86.1821 36.9825 92.8185 33.6714 100.176 31.1871Z" fill="#63C54D"/>
<path d="M86.5685 93.7505C86.6014 99.4832 81.5563 104.156 75.3009 104.186C69.0454 104.216 63.9482 99.593 63.9144 93.8595V93.7505C63.8815 88.0162 68.9258 83.3439 75.182 83.3137C81.4383 83.2835 86.5355 87.9064 86.5685 93.6399V93.7489M68.9074 64.0953C73.6007 67.1504 74.447 74.0789 70.7976 79.5672C67.1483 85.0555 60.3839 87.0293 55.6906 83.9727C50.998 80.9176 50.1511 73.9884 53.8004 68.5001C57.4505 63.011 64.2141 61.0387 68.9074 64.0953ZM81.5755 63.5408C76.8822 66.5974 76.0359 73.5251 79.686 79.0142C83.3361 84.5033 90.099 86.4763 94.7915 83.4189C99.4856 80.3638 100.332 73.4361 96.6818 67.9463C93.0317 62.458 86.2695 60.4849 81.5755 63.5408ZM45.7406 69.1227C50.8072 67.773 47.4507 89.9591 43.3284 88.1384C38.793 84.5133 37.3328 73.8948 45.7406 69.1227ZM104.299 68.8466C99.2319 67.4969 102.588 89.683 106.711 87.8631C111.247 84.2372 112.707 73.6187 104.299 68.8466ZM87.3043 52.2935C96.0486 50.8255 103.324 55.989 103.031 65.4141C102.744 69.0268 84.0827 52.8318 87.3043 52.2935ZM63.1433 52.0166C54.3975 50.5486 47.1211 55.7136 47.4146 65.1387C47.7028 68.7507 66.3642 52.5549 63.1433 52.0166ZM75.1897 49.8185C69.9706 49.6847 64.9622 53.6702 64.9492 55.9797C64.9354 58.7888 69.0761 61.6644 75.2265 61.7371C81.5057 61.7812 85.513 59.4362 85.5337 56.5373C85.5559 53.2533 79.8209 49.7682 75.1897 49.8185ZM75.5929 107.41C80.1436 107.212 86.2504 108.867 86.2619 111.061C86.3378 113.192 80.7239 118.006 75.2917 117.913C69.6655 118.155 64.1482 113.333 64.2203 111.662C64.1359 109.211 71.0721 107.298 75.5929 107.41ZM58.7528 94.4048C61.992 98.2851 63.4691 105.1 60.7656 107.109C58.2086 108.643 51.9968 108.011 47.5802 101.707C44.6039 96.4181 44.9871 91.0349 47.0781 89.454C50.2047 87.5607 55.0352 90.1176 58.752 94.404M91.3722 93.175C87.8654 97.2565 85.9131 104.699 88.4709 107.096C90.9161 108.959 97.4789 108.698 102.328 102.012C105.848 97.521 104.669 90.0225 102.657 88.0309C99.6704 85.7338 95.3833 88.6729 91.3714 93.1743V93.1758" fill="#C51850"/>
</g>
<defs>
<clipPath id="clip0_1896_300">
<rect width="149" height="149" fill="white"/>
</clipPath>
</defs>
</svg>
