<svg width="149" height="149" viewBox="0 0 149 149" fill="none" xmlns="http://www.w3.org/2000/svg">
<g clip-path="url(#clip0_1894_187)">
<path d="M114.078 0H34.9219C15.6351 0 0 15.6351 0 34.9219V114.078C0 133.365 15.6351 149 34.9219 149H114.078C133.365 149 149 133.365 149 114.078V34.9219C149 15.6351 133.365 0 114.078 0Z" fill="black"/>
<g clip-path="url(#clip1_1894_187)">
<path d="M110.909 57.0551C109.706 56.6493 108.493 56.2733 107.271 55.9274C107.477 55.1024 107.666 54.2874 107.833 53.4867C110.587 40.3384 108.787 29.7458 102.638 26.2583C96.7433 22.9148 87.1026 26.4011 77.366 34.7367C76.4064 35.5596 75.4682 36.4063 74.5521 37.2759C73.9388 36.6977 73.3147 36.1306 72.6801 35.5751C62.4757 26.6625 52.2474 22.9062 46.1057 26.4037C40.216 29.7576 38.472 39.7153 40.9509 52.1763C41.1975 53.4104 41.476 54.6382 41.7861 55.8584C40.3382 56.2631 38.9412 56.6938 37.6042 57.1523C25.6403 61.2556 18 67.6859 18 74.3558C18 81.2445 26.2022 88.1541 38.6631 92.3438C39.6734 92.682 40.692 92.9954 41.7181 93.2839C41.385 94.5981 41.0891 95.9212 40.8309 97.2517C38.4676 109.496 40.3131 119.219 46.1869 122.551C52.2536 125.993 62.4359 122.456 72.3504 113.93C73.1542 113.237 73.9405 112.524 74.7083 111.793C75.7004 112.734 76.719 113.648 77.7629 114.534C87.367 122.663 96.8519 125.946 102.72 122.604C108.781 119.153 110.751 108.708 108.193 96.0012C107.992 95.0057 107.766 94.0151 107.516 93.0303C108.231 92.8219 108.933 92.6074 109.617 92.3842C122.571 88.1624 131 81.3366 131 74.3558C131 67.6615 123.113 61.1879 110.909 57.0551ZM108.099 87.8771C107.48 88.078 106.848 88.2727 106.201 88.4611C104.771 84.0074 102.841 79.2719 100.479 74.3788C102.733 69.6025 104.588 64.9273 105.978 60.5027C107.134 60.8318 108.256 61.1788 109.338 61.5448C119.794 65.0862 126.173 70.3215 126.173 74.3558C126.173 78.6527 119.284 84.231 108.099 87.8771ZM103.458 96.9234C104.589 102.542 104.75 107.622 104.001 111.594C103.328 115.163 101.975 117.542 100.301 118.495C96.7403 120.523 89.1247 117.887 80.9114 110.935C79.9405 110.111 78.9931 109.261 78.0701 108.386C81.2544 104.96 84.4365 100.978 87.5422 96.5552C93.0051 96.0785 98.166 95.2986 102.846 94.2344C103.077 95.1497 103.281 96.046 103.458 96.9234ZM56.5242 118.145C53.045 119.353 50.2739 119.388 48.5987 118.438C45.0344 116.416 43.5526 108.609 45.5738 98.1375C45.814 96.9001 46.0891 95.6695 46.3988 94.4471C51.0273 95.4545 56.1507 96.1788 61.6264 96.6156C64.7533 100.943 68.0272 104.921 71.3267 108.404C70.6255 109.072 69.9077 109.722 69.174 110.355C64.7895 114.125 60.3962 116.799 56.5242 118.145ZM40.2248 87.8506C34.7147 85.9978 30.1643 83.5901 27.0453 80.9627C24.2424 78.6019 22.8277 76.2576 22.8277 74.3558C22.8277 70.3081 28.9619 65.1453 39.1932 61.6364C40.4349 61.2109 41.7344 60.8093 43.0829 60.4324C44.4972 64.9568 46.352 69.6876 48.5903 74.4713C46.3228 79.3257 44.4416 84.132 43.0136 88.7099C42.077 88.4459 41.1471 88.1594 40.2248 87.8506ZM45.6885 51.264C43.5649 40.5881 44.9752 32.5348 48.5246 30.5135C52.3048 28.3607 60.6641 31.4301 69.475 39.1261C70.0496 39.6291 70.6148 40.1422 71.1705 40.6654C67.8873 44.1334 64.6434 48.0817 61.5443 52.3838C56.2298 52.8684 51.1425 53.6465 46.4654 54.6891C46.1772 53.5541 45.9181 52.4118 45.6885 51.264ZM94.4317 63.1045C93.3269 61.2274 92.1812 59.3739 90.9953 57.5453C94.6008 57.9938 98.0552 58.5891 101.299 59.3169C100.325 62.3876 99.1115 65.5977 97.6827 68.8891C96.6383 66.9398 95.5544 65.0112 94.4317 63.1045ZM74.5543 44.0596C76.7807 46.4326 79.0107 49.0817 81.2041 51.9561C76.7547 51.7494 72.2979 51.7485 67.8484 51.9535C70.044 49.1056 72.293 46.4599 74.5543 44.0596ZM54.5493 63.1366C53.4406 65.028 52.377 66.9445 51.3593 68.8847C49.9538 65.6051 48.751 62.3802 47.7689 59.2661C50.9929 58.5566 54.431 57.9765 58.0135 57.5362C56.8144 59.376 55.6594 61.2436 54.5493 63.1366ZM58.1163 91.5127C54.4151 91.1063 50.9254 90.5562 47.7022 89.8658C48.6998 86.696 49.9291 83.4025 51.365 80.0526C52.3868 81.9942 53.4548 83.912 54.5683 85.8042C55.7133 87.7494 56.8989 89.6547 58.1163 91.5127ZM74.6876 104.986C72.3993 102.558 70.1173 99.8717 67.8886 96.9825C70.0524 97.0659 72.2581 97.1084 74.5 97.1084C76.8033 97.1084 79.08 97.0576 81.3211 96.9595C79.1206 99.9008 76.899 102.591 74.6876 104.986ZM97.7281 79.8815C99.2386 83.2684 100.512 86.5445 101.522 89.66C98.2463 90.3955 94.7089 90.9878 90.9817 91.4276C92.1761 89.5651 93.3326 87.6794 94.4507 85.7716C95.5875 83.8324 96.6803 81.8686 97.7281 79.8815ZM90.2692 83.3991C88.5574 86.324 86.7495 89.1935 84.8483 92.003C81.4043 92.243 77.9527 92.3622 74.5 92.3603C70.9833 92.3603 67.5629 92.2526 64.2691 92.0425C62.3181 89.2396 60.4757 86.3651 58.7458 83.4251C57.0238 80.5008 55.4159 77.5132 53.9247 74.4687C55.4121 71.4234 57.0156 68.4344 58.7316 65.5079L58.7312 65.5083C60.4464 62.5809 62.2741 59.7187 64.2104 56.9279C67.5708 56.6778 71.0169 56.5475 74.4996 56.5475C77.9981 56.5475 81.4491 56.6791 84.8086 56.9309C86.7253 59.7175 88.5414 62.5699 90.2533 65.4827C91.9749 68.4029 93.5995 71.3774 95.1247 74.4014C93.6151 77.4563 91.9956 80.4574 90.2692 83.3991ZM100.227 30.3715C104.011 32.5183 105.483 41.1751 103.105 52.5276C102.953 53.2524 102.784 53.9891 102.598 54.7377C97.9091 53.673 92.8184 52.8815 87.4884 52.3895C84.3835 48.04 81.1661 44.0856 77.9363 40.6623C78.7828 39.8597 79.6494 39.0779 80.5353 38.3176C88.8779 31.1761 96.6749 28.3564 100.227 30.3715ZM74.5 64.4297C80.0728 64.4297 84.5905 68.8739 84.5905 74.3558C84.5905 79.8377 80.0728 84.2818 74.5 84.2818C68.9272 84.2818 64.4095 79.8377 64.4095 74.3558C64.4095 68.8739 68.9272 64.4297 74.5 64.4297Z" fill="#00D8FF"/>
</g>
</g>
<defs>
<clipPath id="clip0_1894_187">
<rect width="149" height="149" fill="white"/>
</clipPath>
<clipPath id="clip1_1894_187">
<rect width="113" height="99" fill="white" transform="translate(18 25)"/>
</clipPath>
</defs>
</svg>
