<svg width="149" height="149" viewBox="0 0 149 149" fill="none" xmlns="http://www.w3.org/2000/svg">
<g clip-path="url(#clip0_1894_163)">
<path d="M114.078 0H34.9219C15.6351 0 0 15.6351 0 34.9219V114.078C0 133.365 15.6351 149 34.9219 149H114.078C133.365 149 149 133.365 149 114.078V34.9219C149 15.6351 133.365 0 114.078 0Z" fill="white"/>
<path d="M122.635 82.1868C118.274 82.2099 114.484 83.2855 111.311 84.8755C110.146 82.5138 108.981 80.4098 108.776 78.8664C108.548 77.0663 108.274 75.9672 108.548 73.816C108.822 71.6649 110.055 68.6017 110.032 68.3681C110.009 68.1344 109.757 67.0353 107.246 67.0122C104.735 66.9891 102.566 67.5031 102.315 68.181C102.063 68.8589 101.584 70.4023 101.264 71.9919C100.83 74.3305 96.2416 82.6772 93.6162 87.0497C92.7711 85.3433 92.0405 83.8466 91.8804 82.6542C91.6523 80.854 91.3781 79.7549 91.6523 77.6038C91.9265 75.4527 93.1593 72.39 93.1363 72.1558C93.1133 71.9222 92.8621 70.823 90.3508 70.8C87.839 70.7764 85.6699 71.2909 85.4192 71.9688C85.168 72.6472 84.8938 74.2367 84.369 75.7801C83.8441 77.3235 77.7477 91.2591 76.1495 94.8594C75.5036 96.3166 74.8261 97.7588 74.1175 99.1852C74.1175 99.1852 74.0945 99.2554 74.0259 99.3722C73.8033 99.8194 73.5751 100.264 73.3414 100.705V100.728C72.9987 101.36 72.6334 101.944 72.4508 101.944C72.3137 101.944 72.0625 100.261 72.4963 97.9692C73.4095 93.1294 75.5786 85.6005 75.5561 85.3433C75.5561 85.2029 75.9669 83.8937 74.1405 83.2153C72.3592 82.5373 71.7203 83.6595 71.5602 83.6595C71.4 83.6595 71.286 84.0572 71.286 84.0572C71.286 84.0572 73.2729 75.5931 67.4962 75.5931C63.8891 75.5931 58.9115 79.6381 56.4457 83.2855C53.6426 84.8476 50.8419 86.4142 48.0436 87.9853C46.6971 88.757 45.3041 89.5287 44.0026 90.2533C43.9111 90.16 43.82 90.0427 43.7284 89.9494C36.7418 82.3037 23.8194 76.9023 24.3673 66.6381C24.573 62.897 25.8284 53.0766 49.1854 41.1522C68.4094 31.4486 83.707 34.1372 86.3554 40.0997C90.1452 48.6109 78.1589 64.4168 58.295 66.7078C50.715 67.5733 46.7421 64.5803 45.7379 63.4581C44.6876 62.2888 44.5275 62.2186 44.1392 62.4527C43.5003 62.8037 43.9111 63.8557 44.1392 64.4635C44.7332 66.053 47.1759 68.8589 51.3084 70.2389C54.9616 71.4543 63.843 72.1328 74.5969 67.8772C86.6291 63.1071 96.0359 49.8499 93.2734 38.7438C90.5104 27.4738 72.2452 23.7562 54.9616 30.0456C44.6876 33.7872 33.5455 39.679 25.5317 47.3483C16.0108 56.4667 14.5037 64.3933 15.1201 67.7137C17.3352 79.4977 33.2033 87.167 39.5504 92.8486C39.2307 93.0357 38.9334 93.1996 38.6828 93.34C35.509 94.9531 23.4082 101.43 20.3945 108.281C16.97 116.043 20.9429 121.608 23.5683 122.356C31.7192 124.671 40.0983 120.509 44.5961 113.635C49.0938 106.761 48.5459 97.8288 46.4684 93.7372C46.4454 93.6905 46.4229 93.6434 46.3769 93.5968C47.1989 93.1059 48.0436 92.5914 48.8657 92.1005C50.3766 91.1858 51.9067 90.3048 53.455 89.458C52.6784 91.6327 52.1075 94.2281 51.8338 97.9692C51.4911 102.365 53.2489 108.07 55.555 110.314C56.5828 111.297 57.7926 111.32 58.5692 111.32C61.2632 111.32 62.4735 109.029 63.8205 106.316C65.4642 102.996 66.9483 99.1385 66.9483 99.1385C66.9483 99.1385 65.099 109.567 70.1221 109.567C71.9484 109.567 73.7978 107.135 74.6199 105.896V105.919C74.6199 105.919 74.6654 105.849 74.757 105.685C74.9396 105.381 75.0537 105.194 75.0537 105.194V105.148C75.7842 103.838 77.4284 100.868 79.8712 95.9349C83.022 89.5753 86.0587 81.6257 86.0587 81.6257C86.0587 81.6257 86.3329 83.5663 87.2686 86.7929C87.817 88.6868 88.9578 90.7677 89.8715 92.7784C89.1409 93.8309 88.6841 94.4151 88.6841 94.4151L88.7071 94.4387C88.1132 95.2334 87.4742 96.0984 86.7662 96.9408C84.2774 99.9799 81.3097 103.464 80.8984 104.469C80.4186 105.662 80.5332 106.527 81.4468 107.229C82.1088 107.743 83.2957 107.813 84.5061 107.743C86.7437 107.579 88.3188 107.018 89.0949 106.667C90.3053 106.223 91.7208 105.545 93.0448 104.539C95.488 102.692 96.9716 100.05 96.835 96.5667C96.7665 94.6493 96.15 92.7318 95.3965 90.9312C95.6251 90.6043 95.8303 90.2768 96.059 89.9494C99.9173 84.174 102.908 77.8375 102.908 77.8375C102.908 77.8375 103.183 79.778 104.118 83.0052C104.575 84.6418 105.511 86.4189 106.333 88.1488C102.703 91.1654 100.465 94.6723 99.6661 96.9638C98.228 101.219 99.3464 103.136 101.47 103.581C102.429 103.791 103.799 103.323 104.803 102.879C106.082 102.458 107.589 101.734 109.027 100.658C111.471 98.8111 113.822 96.2388 113.685 92.7554C113.616 91.1654 113.205 89.5984 112.635 88.0786C115.717 86.7699 119.69 86.0448 124.758 86.6525C135.626 87.9618 137.772 94.906 137.361 97.8293C136.95 100.752 134.667 102.342 133.914 102.833C133.16 103.324 132.909 103.487 132.978 103.838C133.069 104.352 133.434 104.329 134.074 104.236C134.964 104.072 139.782 101.874 139.987 96.496C140.33 89.622 133.936 82.1166 122.635 82.1868ZM38.7968 111.133C35.1892 115.155 30.1666 116.674 27.9975 115.389C25.6688 114.009 26.582 108.07 31.0112 103.815C33.7051 101.219 37.1757 98.8106 39.4818 97.3379C40.0067 97.0105 40.7833 96.5431 41.7195 95.9585C41.8791 95.8647 41.9706 95.8181 41.9706 95.8181L42.5185 95.4671C44.1392 101.546 42.5871 106.901 38.7968 111.133ZM65.0534 92.8486C63.7975 95.982 61.1721 104.002 59.5739 103.558C58.2039 103.184 57.3588 97.1042 59.2997 91.0952C60.2815 88.0786 62.359 84.4779 63.5693 83.0754C65.5328 80.8305 67.7018 80.0819 68.2267 80.9944C68.8892 82.1868 65.8295 90.8846 65.0534 92.8486ZM86.7207 103.464C86.1953 103.745 85.6934 103.932 85.4648 103.791C85.3051 103.697 85.6934 103.323 85.6934 103.323C85.6934 103.323 88.4104 100.331 89.4832 98.9746C90.1001 98.1798 90.8302 97.2446 91.6067 96.1922V96.496C91.6067 100.074 88.2273 102.482 86.7202 103.464M103.433 99.5592C103.045 99.2784 103.113 98.3433 104.415 95.4205C104.917 94.2747 106.104 92.3578 108.136 90.5105C108.364 91.2586 108.525 91.9837 108.502 92.6616C108.479 97.1744 105.328 98.8577 103.433 99.5592Z" fill="#CD6799"/>
</g>
<defs>
<clipPath id="clip0_1894_163">
<rect width="149" height="149" fill="white"/>
</clipPath>
</defs>
</svg>
