<svg width="149" height="149" viewBox="0 0 149 149" fill="none" xmlns="http://www.w3.org/2000/svg">
<g clip-path="url(#clip0_1894_182)">
<path d="M114.078 0H34.9219C15.6351 0 0 15.6351 0 34.9219V114.078C0 133.365 15.6351 149 34.9219 149H114.078C133.365 149 149 133.365 149 114.078V34.9219C149 15.6351 133.365 0 114.078 0Z" fill="#242938"/>
<path fill-rule="evenodd" clip-rule="evenodd" d="M48.3672 64.9531C51.8828 50.9844 60.6719 44 74.7344 44C95.8281 44 98.4648 59.7148 109.012 62.334C116.043 64.0809 122.195 61.4617 127.469 54.4766C123.953 68.4453 115.164 75.4297 101.102 75.4297C80.0078 75.4297 77.3711 59.7148 66.8242 57.0957C59.793 55.3496 53.6406 57.9688 48.3672 64.9531ZM22 96.3828C25.5156 82.4141 34.3047 75.4297 48.3672 75.4297C69.4609 75.4297 72.0977 91.1445 82.6445 93.7637C89.6758 95.5105 95.8281 92.8914 101.102 85.9062C97.5859 99.875 88.7969 106.859 74.7344 106.859C53.6406 106.859 51.0039 91.1445 40.457 88.5254C33.4258 86.7785 27.2734 89.3977 22 96.3828Z" fill="url(#paint0_linear_1894_182)"/>
</g>
<defs>
<linearGradient id="paint0_linear_1894_182" x1="50.418" y1="44" x2="95.1275" y2="109.176" gradientUnits="userSpaceOnUse">
<stop stop-color="#32B1C1"/>
<stop offset="1" stop-color="#14C6B7"/>
</linearGradient>
<clipPath id="clip0_1894_182">
<rect width="149" height="149" fill="white"/>
</clipPath>
</defs>
</svg>
