<svg width="149" height="149" viewBox="0 0 149 149" fill="none" xmlns="http://www.w3.org/2000/svg">
<g clip-path="url(#clip0_1897_329)">
<path d="M114.078 0H34.9219C15.6351 0 0 15.6351 0 34.9219V114.078C0 133.365 15.6351 149 34.9219 149H114.078C133.365 149 149 133.365 149 114.078V34.9219C149 15.6351 133.365 0 114.078 0Z" fill="white"/>
<path d="M118.204 74.0171C120.891 74.6421 123.332 76.049 125.22 78.0602C126.26 79.1487 127.163 80.3602 127.909 81.6678C127.944 81.8098 123.068 85.086 120.11 86.9135C120.003 86.9861 119.577 86.5221 119.094 85.8088C118.554 84.8801 117.787 84.1036 116.865 83.5516C115.943 82.9997 114.897 82.6903 113.823 82.6526C110.424 82.419 108.233 84.1991 108.249 87.1755C108.22 87.9067 108.386 88.6324 108.732 89.2775C109.48 90.8241 110.869 91.752 115.231 93.6426C123.26 97.0987 126.707 99.3775 128.834 102.616C130.036 104.662 130.777 106.946 131.004 109.309C131.231 111.671 130.938 114.054 130.147 116.292C129.06 118.746 127.335 120.864 125.153 122.426C122.971 123.988 120.41 124.938 117.737 125.177C114.895 125.503 112.024 125.473 109.19 125.088C104.848 124.375 100.849 122.291 97.7765 119.142C96.6156 117.835 95.6329 116.38 94.8538 114.815C95.1814 114.571 95.5263 114.352 95.8859 114.158C96.3846 113.874 98.272 112.788 100.052 111.756L103.284 109.863L103.96 110.847C105.097 112.474 106.545 113.86 108.221 114.925C109.912 115.853 111.829 116.293 113.756 116.195C115.683 116.098 117.545 115.467 119.135 114.373C119.955 113.574 120.467 112.511 120.583 111.372C120.698 110.233 120.409 109.09 119.766 108.142C118.895 106.896 117.115 105.848 112.055 103.654C108.088 102.317 104.475 100.099 101.485 97.1681C100.061 95.5457 99.01 93.6314 98.4046 91.5595C97.9569 89.1992 97.8909 86.7824 98.2089 84.4011C98.8029 81.661 100.225 79.1697 102.282 77.2648C104.339 75.3599 106.933 74.1336 109.71 73.7519C112.539 73.4139 115.402 73.5033 118.204 74.0171ZM91.8712 78.6978L91.9059 83.287H77.2924V124.785H66.9873V83.2964H52.3739V78.7893C52.335 77.2458 52.3771 75.7013 52.5001 74.1622C52.5538 74.0896 61.4386 74.0549 72.2109 74.0739L91.8143 74.1275L91.8712 78.6978Z" fill="#007ACC"/>
</g>
<defs>
<clipPath id="clip0_1897_329">
<rect width="149" height="149" fill="white"/>
</clipPath>
</defs>
</svg>
