<svg width="149" height="149" viewBox="0 0 149 149" fill="none" xmlns="http://www.w3.org/2000/svg">
<g clip-path="url(#clip0_1896_293)">
<path d="M114.078 0H34.9219C15.6351 0 0 15.6351 0 34.9219V114.078C0 133.365 15.6351 149 34.9219 149H114.078C133.365 149 149 133.365 149 114.078V34.9219C149 15.6351 133.365 0 114.078 0Z" fill="white"/>
<path d="M130 75.0006C130 104.823 105.376 129 75.0002 129C44.6235 129 20 104.823 20 75.0006C20 45.1766 44.6244 21 75.0002 21C105.376 21 130 45.1766 130 75.0006Z" fill="#DD4814"/>
<path d="M37.6017 67.7901C33.5444 67.7901 30.2573 71.0175 30.2573 75.001C30.2573 78.9824 33.5444 82.2102 37.6017 82.2102C41.6572 82.2102 44.9443 78.9824 44.9443 75.001C44.9443 71.0175 41.6572 67.7901 37.6017 67.7901ZM90.0307 100.558C86.5188 102.55 85.314 106.957 87.3428 110.403C89.3695 113.852 93.8579 115.034 97.3703 113.042C100.882 111.052 102.087 106.645 100.058 103.196C98.0315 99.7503 93.5405 98.5682 90.0307 100.558ZM53.552 75.001C53.552 67.8764 57.1565 61.5815 62.6715 57.7701L57.303 48.9419C50.8787 53.1585 46.0983 59.6014 44.1116 67.1477C46.4299 69.0043 47.9134 71.8316 47.9134 75.0006C47.9134 78.1679 46.4299 80.9952 44.1116 82.8522C46.0957 90.4002 50.8762 96.8439 57.303 101.061L62.6715 92.2298C57.1565 88.4205 53.552 82.1261 53.552 75.001ZM75 53.9405C86.2052 53.9405 95.3983 62.3754 96.3632 73.1329L106.826 72.9815C106.312 65.0398 102.778 57.9101 97.3488 52.6675C94.5566 53.7032 91.3312 53.5446 88.5442 51.9671C85.7516 50.3849 84.0006 47.7159 83.522 44.8188C80.7463 44.0648 77.8796 43.6821 74.9996 43.6811C70.0958 43.6764 65.2574 44.7856 60.8627 46.922L65.965 55.8995C68.7948 54.6064 71.8788 53.9377 75 53.9405ZM75 96.0598C71.8789 96.0626 68.7951 95.3939 65.9654 94.1008L60.8632 103.077C65.2571 105.217 70.0961 106.327 75.0005 106.322C77.8806 106.321 80.7473 105.938 83.5225 105.181C84.001 102.284 85.7525 99.6175 88.5442 98.0328C91.3337 96.4523 94.5571 96.2967 97.3488 97.3324C102.778 92.0898 106.312 84.9601 106.827 77.0184L96.3611 76.867C95.3983 87.6275 86.2056 96.0598 75 96.0598ZM90.0281 49.4397C93.5405 51.4308 98.0294 50.2517 100.056 46.8032C102.084 43.3546 100.883 38.9473 97.3703 36.9553C93.8579 34.9659 89.3695 36.1475 87.3402 39.5961C85.3144 43.0429 86.5184 47.4498 90.0281 49.4397Z" fill="white"/>
</g>
<defs>
<clipPath id="clip0_1896_293">
<rect width="149" height="149" fill="white"/>
</clipPath>
</defs>
</svg>
