<svg width="149" height="149" viewBox="0 0 149 149" fill="none" xmlns="http://www.w3.org/2000/svg">
<g clip-path="url(#clip0_1894_213)">
<path d="M114.078 0H34.9219C15.6351 0 0 15.6351 0 34.9219V114.078C0 133.365 15.6351 149 34.9219 149H114.078C133.365 149 149 133.365 149 114.078V34.9219C149 15.6351 133.365 0 114.078 0Z" fill="white"/>
<g clip-path="url(#clip1_1894_213)">
<path d="M103.696 98.1983H117.848V60.6384L101.904 43.0146L91.8965 54.076L103.696 67.1185V98.1983ZM117.885 106.04H68.5216L56.7217 92.9979L61.7257 87.4673L71.4713 98.2397H91.5229L71.7701 76.3646L76.8111 70.7925L96.5638 92.6268V70.4618L86.8556 59.7307L91.8217 54.2409L67.2894 27H18L32.1146 42.6017V42.643H61.3895L71.7327 54.076L56.6099 70.792L46.2667 59.3591V50.4852H32.1146V65.8392L56.6099 92.9152L46.6398 103.935L62.5842 121.559H132L117.885 106.04Z" fill="#231F20"/>
</g>
</g>
<defs>
<clipPath id="clip0_1894_213">
<rect width="149" height="149" fill="white"/>
</clipPath>
<clipPath id="clip1_1894_213">
<rect width="114" height="95" fill="white" transform="translate(18 27)"/>
</clipPath>
</defs>
</svg>
