<?xml version="1.0" encoding="UTF-8"?>
<svg xmlns="http://www.w3.org/2000/svg" viewBox="0 0 192 192"><path d="M164 161.657L130.343 128H80V60h96v68h-12v33.657zM88 120h45.657L156 142.343V120h12V68H88v52zm-26.343-16H72v-8H58.343L36 118.343V96H24V40h84v12h8V32H16v72h12v33.657L61.657 104zM48.499 76.415l-1.712 5.177H39L50.04 51h9.925L70.79 81.592h-8.942l-1.669-5.177H48.5zm5.904-17.885l-3.98 11.938h7.873L54.403 58.53zM142 88v-8h-9v-4h-8v4h-10v8h16.147c-1.375 2.562-3.288 5.075-5.68 7.47a30.377 30.377 0 0 1-3.205-3.785l-6.524 4.63a38.082 38.082 0 0 0 3.58 4.306 60.122 60.122 0 0 1-6.219 3.86l3.802 7.039a68.32 68.32 0 0 0 8.651-5.55c3.452 2.448 7.373 4.54 11.694 6.208l2.88-7.463a46.633 46.633 0 0 1-8.365-4.209c3.38-3.49 6.359-7.658 8.16-12.506H142z" style="fill: #ffffff;"/></svg>
