<?xml version="1.0" encoding="UTF-8"?>
<svg xmlns="http://www.w3.org/2000/svg" viewBox="0 0 192 192"><path d="M140 157.657l-10.829-10.828 5.658-5.658 5.171 5.172 13.171-13.172 5.658 5.658L140 157.657zM176 144c0-17.645-14.355-32-32-32s-32 14.355-32 32 14.355 32 32 32 32-14.355 32-32zm-8 0c0 13.234-10.766 24-24 24s-24-10.766-24-24 10.766-24 24-24 24 10.766 24 24zM16 32v104h64v16H64v8h43.35a39.814 39.814 0 0 1-2.535-8H88v-16h16.815c.569-2.78 1.421-5.46 2.535-8H24V40h144v72.022a40.341 40.341 0 0 1 8 8.006V32H16zm52.207 87.995a4 4 0 0 0 3.538-2.59l20.45-54.535 16.113 38.669a3.986 3.986 0 0 0 3.764 2.46 4 4 0 0 0 3.673-2.595l8.78-23.41 3.897 7.795A4 4 0 0 0 132 88h28v-8h-25.528l-6.894-13.79a4 4 0 0 0-7.323.385l-8.45 22.535L95.691 50.46c-.63-1.514-2.08-2.504-3.764-2.46a4 4 0 0 0-3.673 2.595L67.48 105.992 55.63 82.216A4 4 0 0 0 52.05 80H32v8h17.574l14.846 29.784a4 4 0 0 0 3.787 2.21z" style="fill: #007bc0;"/></svg>
