<?xml version="1.0" encoding="UTF-8"?>
<svg xmlns="http://www.w3.org/2000/svg" viewBox="0 0 192 192"><path d="M36.117 176v-8h28c1.737-.008 3.883-1.87 3.883-4.032l-.002-17.923-17.107-12.364c-1.405-1.03-2.902-2.403-2.893-5.7.011-3.716 2.503-5.747 4.322-7.23l.61-.48L68 109.887 67.995 96c0-4.42 3.593-8.014 8.011-8.014l11.998.009c1.751 0 4.002-2.217 4.012-3.953-.027-4.405-11.548-25.307-19.17-39.139-4.427-8.033-9.006-16.34-12.435-23.11l7.136-3.615c3.367 6.646 7.91 14.89 12.305 22.864 12.522 22.719 20.126 36.95 20.164 42.997-.033 6.168-5.872 11.956-12.014 11.956l-11.999-.009v18.103l-18.628 12.865c-.314.256-.696.568-.993.835l19.617 14.167.002 22.013c0 6.38-5.544 12.002-11.865 12.032H36.117zm71.869-52c0-6.617-5.378-12-11.988-12v8c2.199 0 3.988 1.794 3.988 4s-1.79 4-3.988 4v8c6.61 0 11.988-5.383 11.988-12zm47.933-.073c0-24.267-19.743-44.01-44.01-44.01v8c19.856 0 36.01 16.154 36.01 36.01s-16.154 36.011-36.01 36.011v8c24.267 0 44.01-19.743 44.01-44.01zm-23.934.06c0-15.44-12.555-28.003-27.987-28.003v8c11.021 0 19.987 8.974 19.987 20.003s-8.966 20.002-19.987 20.002v8c15.432 0 27.987-12.562 27.987-28.002z" style="fill: #ffffff;"/></svg>
