<?xml version="1.0" encoding="UTF-8"?>
<!-- Generator: Adobe Illustrator 24.0.1, SVG Export Plug-In . SVG Version: 6.00 Build 0)  -->
<svg xmlns="http://www.w3.org/2000/svg" xmlns:xlink="http://www.w3.org/1999/xlink" version="1.1" id="Icon_x5F_contour" x="0px" y="0px" viewBox="0 0 192 192" style="enable-background:new 0 0 192 192;" xml:space="preserve">
<path d="M60,120c-1.72168,0-3.25049-1.10156-3.79492-2.73486L49.11719,96H20v-8h32c1.72168,0,3.25049,1.10156,3.79492,2.73486  L60,103.35107l12.20508-36.61621C72.74951,65.10156,74.27832,64,76,64s3.25049,1.10156,3.79492,2.73486L88,91.35107  l4.20508-12.61621C92.74951,77.10156,94.27832,76,96,76s3.25049,1.10156,3.79492,2.73486L102.88281,88H120v8h-20  c-1.72168,0-3.25049-1.10156-3.79492-2.73486L96,92.64893l-4.20508,12.61621C91.25049,106.89844,89.72168,108,88,108  s-3.25049-1.10156-3.79492-2.73486L76,80.64893l-12.20508,36.61621C63.25049,118.89844,61.72168,120,60,120z M129.77783,24  C116.77881,24,104.71875,29.30273,96,38.70312C87.28125,29.30273,75.22119,24,62.22217,24C36.73535,24,16,44.79395,16,70.35303  c0,3.23615,0.18036,6.45233,0.5199,9.64697h8.04388C24.20099,76.86469,24,73.6521,24,70.35303C24,49.20508,41.14648,32,62.22217,32  c12.13135,0,23.27588,5.59033,30.57617,15.33838L96,51.61328l3.20166-4.2749C106.50195,37.59033,117.64648,32,129.77783,32  C150.85352,32,168,49.20508,168,70.35303c0,26.84863-12.27881,51.44336-36.49561,73.10107  c-15.17578,13.57178-30.55957,21.68164-35.50244,24.11426C87.43494,163.33716,47.43884,141.92529,31.04333,104h-8.64209  c6.38177,16.36963,17.46259,31.77643,32.93665,45.57373c19.24365,17.1582,38.23438,25.72363,39.0332,26.07959L96,176.37939  l1.62891-0.72607c0.79883-0.35596,19.78955-8.92139,39.0332-26.07959C162.39697,126.62744,176,99.2334,176,70.35303  C176,44.79395,155.26465,24,129.77783,24z" style="fill: #ffffff;"/>
<g>
</g>
<g>
</g>
<g>
</g>
<g>
</g>
<g>
</g>
<g>
</g>
<g>
</g>
<g>
</g>
<g>
</g>
<g>
</g>
<g>
</g>
<g>
</g>
<g>
</g>
<g>
</g>
<g>
</g>
</svg>
