<?xml version="1.0" encoding="UTF-8"?>
<svg xmlns="http://www.w3.org/2000/svg" viewBox="0 0 192 192"><path d="M136 56v52.6L120.6 124H112v-8h16V64h-16v12h8v8H96v-8h8V64h-8v-8h40zm-36 36H76v-8h12v-8H76V64h12v-8H68v68h36v-8H76v-16h24v8h8V92h-8zm76-60v66.61a22.055 22.055 0 0 0-8-4.693V40H56.002l.124 99.995-8 .062C48.033 133.41 42.593 128 36 128c-6.617 0-12 5.383-12 12s5.383 12 12 12h63.649l-2 8H34v-.101c-9.892-.987-17.663-9.215-17.97-19.29H16V35.094h.046C16.525 24.488 25.278 16 36 16c9.658 0 17.738 6.882 19.597 16H176zM48 36c0-6.617-5.383-12-12-12s-12 5.383-12 12v88.038c3.347-2.523 7.495-4.038 12-4.038 4.527 0 8.728 1.532 12.107 4.107l-.11-88.102m120.41 103.03l-.407.407V152h-12.558l-8 8H176v-28.533l-7.581 7.58-.013-.011zm2.676-13.964l-2.774 2.773-.013-.012-38.962 38.962-26.813 6.704 6.703-26.814 38.907-38.908 2.816-2.84c5.553-5.552 14.586-5.551 20.136 0 5.551 5.55 5.551 14.583 0 20.135zm-13.296 1.957l-8.797-8.797-32.542 32.542-2.932 11.73 11.729-2.933 32.542-32.542zm9.466-12.025a6.196 6.196 0 0 0-1.827-4.41 6.245 6.245 0 0 0-8.473-.324l-2.305 2.305 8.796 8.797 2.305-2.305a6.193 6.193 0 0 0 1.504-4.063z" style="fill: #007bc0;"/></svg>
