<?xml version="1.0" encoding="UTF-8"?>
<!-- Generator: Adobe Illustrator 23.0.1, SVG Export Plug-In . SVG Version: 6.00 Build 0)  -->
<svg xmlns="http://www.w3.org/2000/svg" xmlns:xlink="http://www.w3.org/1999/xlink" version="1.1" id="Icon_x5F_contour" x="0px" y="0px" viewBox="0 0 192 192" enable-background="new 0 0 192 192" xml:space="preserve">
<path d="M32,57.7L17.2,42.8l5.7-5.7l9.2,9.2l21.2-21.2l5.7,5.7L32,57.7z M122.8,82.8l-5.7-5.7L96,98.3l-9.2-9.2l-5.7,5.7L96,109.7  L122.8,82.8z M174.8,134.8l-5.7-5.7L148,150.3l-9.2-9.2l-5.7,5.7l14.8,14.8L174.8,134.8z M146,40H61l-8,8h93c12.1,0,22,9.9,22,22  s-9.9,22-22,22h-21l-8,8h29c16.5,0,30-13.5,30-30S162.5,40,146,40z M47,144c-12.1,0-22-9.9-22-22s9.9-22,22-22h28l-8-8H47  c-16.5,0-30,13.5-30,30s13.5,30,30,30h80l-8-8H47z" style="fill: #ffffff;"/>
</svg>
