<?xml version="1.0" encoding="UTF-8"?>
<svg xmlns="http://www.w3.org/2000/svg" viewBox="0 0 192 192"><path d="M143.314 127.218c9.938-5.932 16.611-16.79 16.611-29.18 0-18.728-15.236-33.964-33.963-33.964S92 79.31 92 98.037c0 12.404 6.687 23.27 16.642 29.199C89.604 134.589 76 153.67 76 175.999h8C84 151.738 102.841 132 126 132s42 19.738 42 43.999h8c0-22.345-13.624-41.44-32.686-48.781zM100 98.038c0-14.317 11.646-25.964 25.962-25.964s25.963 11.647 25.963 25.963S140.278 124 125.962 124 100 112.353 100 98.037zM64 108V96H16V16h128v44.074h-.18a41.631 41.631 0 0 0-7.82-2.777V24H24v64h61.222a41.781 41.781 0 0 0-1.17 8H72v12l16-.001v8L56 116v-8h8z" style="fill: #ffffff;"/></svg>
