<?xml version="1.0" encoding="UTF-8"?>
<svg xmlns="http://www.w3.org/2000/svg" viewBox="0 0 192 192"><path d="M109.2 101.5C122.5 96.2 132 83.2 132 68c0-19.9-16.1-36-36-36S60 48.1 60 68c0 15.2 9.5 28.2 22.8 33.5-26.8 6-46.8 30-46.8 58.5h8c0-28.7 23.3-52 52-52s52 23.3 52 52h8c0-28.5-20-52.5-46.8-58.5zM96 40c9.5 0 17.9 4.8 23 12H73c5.1-7.2 13.5-12 23-12zM68 68c0-.8 0-1.7.1-2.5C69 71.4 74.9 76 82 76c7.7 0 14-5.4 14-12 0 6.6 6.3 12 14 12 7.1 0 13-4.6 13.9-10.5.1.8.1 1.7.1 2.5 0 15.4-12.6 28-28 28S68 83.4 68 68z" style="fill: #ffffff;"/></svg>
